<svg xmlns="http://www.w3.org/2000/svg" viewBox="0 0 944.62 1388.89"><defs><style>.cls-1{fill:#d3d3d3;}.cls-2{fill:#686868;}</style></defs><title>bg-mobile</title><g id="Warstwa_2" data-name="Warstwa 2"><path class="cls-1" d="M56.87,793.19l50.71-65.53-35.14-75,78,28L210.93,624l-2.51,82.82L281,746.86l-79.54,23.2-15.67,81.37L139.1,783Z" transform="translate(84.93 83.53)"/><path d="M76.1,782.23l41.84-53.15L89.94,669l63.29,21.87L203,644.8l-2.72,66.67L259,743.09l-65,19.34L180.59,828l-37.43-54.72Z" transform="translate(84.93 83.53)"/><path class="cls-1" d="M97,770.31l31.38-39.86-21-45.07,47.47,16.41,37.31-34.55-2,50L234.18,741l-48.74,14.5-10.07,49.2-28.07-41Z" transform="translate(84.93 83.53)"/><path d="M118.75,757.92l20.92-26.57-14-30.05,31.65,10.94,24.87-23-1.36,33.33,29.37,15.82L177.7,748,171,780.82l-18.72-27.36Z" transform="translate(84.93 83.53)"/><path class="cls-1" d="M140.2,745.76l10.46-13.29-7-15,15.82,5.46,12.44-11.51-.68,16.67,14.68,7.9-16.24,4.84-3.36,16.4L157,743.53Z" transform="translate(84.93 83.53)"/><path class="cls-1" d="M633.48,641.38l50.71-65.53-35.14-75,78,28,60.5-56.61L785,555l72.54,40L778,618.25l-15.67,81.36-46.65-68.47Z" transform="translate(84.93 83.53)"/><path d="M652.72,630.41l41.84-53.15-28-60.09L729.84,539l49.75-46-2.73,66.66,58.75,31.63-65,19.33-13.43,65.6L719.77,621.5Z" transform="translate(84.93 83.53)"/><path class="cls-1" d="M673.62,618.5,705,578.64l-21-45.07L731.46,550l37.31-34.54-2,50,44.06,23.72-48.73,14.5L752,652.85l-28.07-41Z" transform="translate(84.93 83.53)"/><path d="M695.36,606.11l20.92-26.58-14-30,31.64,10.93,24.87-23-1.36,33.33,29.38,15.81-32.49,9.67L747.6,629l-18.71-27.36Z" transform="translate(84.93 83.53)"/><path class="cls-1" d="M716.81,593.94l10.46-13.28-7-15,15.82,5.47,12.44-11.51-.68,16.66,14.69,7.91L746.29,589l-3.36,16.4-9.35-13.68Z" transform="translate(84.93 83.53)"/><path class="cls-1" d="M511.09,702.87l50.71-65.53-35.15-75,78,28,60.51-56.61-2.51,82.82,72.54,40-79.55,23.2L640,761.11l-46.65-68.48Z" transform="translate(84.93 83.53)"/><path d="M530.32,691.91l41.84-53.15-28-60.09,63.3,21.87,49.74-46.06-2.73,66.67,58.75,31.62-65,19.34-13.44,65.6L597.37,683Z" transform="translate(84.93 83.53)"/><path class="cls-1" d="M551.22,680l31.38-39.86-21-45.07,47.47,16.41,37.31-34.55-2,50,44.06,23.72-48.73,14.5-10.07,49.2-28.08-41Z" transform="translate(84.93 83.53)"/><path d="M573,667.6,593.88,641l-14-30,31.65,10.94,24.87-23L635,632.22,664.41,648l-32.49,9.66-6.72,32.8-18.71-27.36Z" transform="translate(84.93 83.53)"/><path class="cls-1" d="M594.42,655.44l10.46-13.29-7-15,15.82,5.46,12.43-11.51-.68,16.67,14.69,7.9-16.24,4.84-3.36,16.4-9.36-13.68Z" transform="translate(84.93 83.53)"/><path class="cls-1" d="M621.63,156l73.74-37.8,0-82.86,58.73,58.45L833,68.22l-37.44,73.92,48.67,67.06-81.87-12.76-48.74,67-13.15-81.81Z" transform="translate(84.93 83.53)"/><path d="M643.7,154.24l60.45-30.36.16-66.29,48,46.67,64.59-20.57-30.78,59.2,39.76,53.58-67-10.09-40,53.69-10.66-65.44Z" transform="translate(84.93 83.53)"/><path class="cls-1" d="M667.68,152.33,713,129.56l.12-49.72,36,35L797.6,99.42l-23.08,44.39L804.34,184l-50.28-7.57-30,40.27-8-49.08Z" transform="translate(84.93 83.53)"/><path d="M692.63,150.34l30.22-15.18.08-33.15,24,23.34,32.3-10.29-15.39,29.6,19.88,26.8-33.52-5.05-20,26.85-5.32-32.72Z" transform="translate(84.93 83.53)"/><path class="cls-1" d="M717.22,148.44l15.11-7.59,0-16.58,12,11.67,16.15-5.14-7.69,14.8L762.77,159,746,156.47l-10,13.42-2.67-16.36Z" transform="translate(84.93 83.53)"/><path class="cls-1" d="M476.36-15.67l-49.43,66.5,36.6,74.34L385,98.7l-59.4,57.78.91-82.85L253.21,35l79.08-24.74L346.38-71.4l48,67.56Z" transform="translate(84.93 83.53)"/><path class="cls-2" d="M457.35-4.34l-40.81,54,29.17,59.54L382,88.5l-48.84,47,1.43-66.7L275.25,38.33l64.59-20.59L352-48.11l38.48,54Z" transform="translate(84.93 83.53)"/><path class="cls-1" d="M436.68,8l-30.6,40.46L428,93.09,380.17,77.61l-36.63,35.26,1.08-50L300.1,40l48.45-15.44,9.12-49.39,28.86,40.49Z" transform="translate(84.93 83.53)"/><path class="cls-2" d="M415.18,20.79l-20.4,27,14.58,29.77L377.51,67.21l-24.42,23.5.72-33.35L324.13,42.12l32.3-10.29L362.51-1.1l19.24,27Z" transform="translate(84.93 83.53)"/><path class="cls-1" d="M394,33.36l-10.2,13.49,7.29,14.89-15.93-5.16L362.92,68.33l.36-16.68L348.44,44l16.15-5.15,3-16.46,9.62,13.5Z" transform="translate(84.93 83.53)"/><path class="cls-1" d="M458.33,391.57,509,326l-35.15-75,78,28,60.5-56.61-2.5,82.82,72.54,40.05-79.55,23.21L587.2,449.81l-46.65-68.48Z" transform="translate(84.93 83.53)"/><path d="M477.56,380.61l41.84-53.15-28-60.09,63.29,21.87,49.75-46.06-2.73,66.67,58.75,31.63-65,19.33L582,426.41l-37.43-54.72Z" transform="translate(84.93 83.53)"/><path class="cls-1" d="M498.46,368.69l31.38-39.86-21-45.07,47.47,16.41,37.3-34.54-2,50,44.06,23.72L586.9,353.84l-10.07,49.21-28.08-41Z" transform="translate(84.93 83.53)"/><path d="M520.2,356.3l20.92-26.57-14-30.05,31.64,10.94,24.88-23-1.37,33.33,29.38,15.82-32.49,9.66-6.72,32.8-18.71-27.35Z" transform="translate(84.93 83.53)"/><path class="cls-1" d="M541.66,344.14l10.46-13.29-7-15,15.83,5.47,12.43-11.52-.68,16.67,14.69,7.91-16.24,4.83-3.36,16.4-9.36-13.68Z" transform="translate(84.93 83.53)"/><path class="cls-1" d="M859.69,1013.83l-49.43,66.5,36.59,74.34-78.52-26.46L708.94,1186l.9-82.85-73.3-38.64,79.08-24.74,14.09-81.65,48,67.56Z" transform="translate(84.93 83.53)"/><path class="cls-2" d="M840.67,1025.16l-40.8,53.95L829,1138.65,765.33,1118l-48.84,47,1.44-66.71-59.36-30.48,64.59-20.59,12.16-65.85,38.49,54Z" transform="translate(84.93 83.53)"/><path class="cls-1" d="M820,1037.48l-30.61,40.46,21.88,44.65-47.78-15.48-36.63,35.26,1.07-50-44.51-22.86L731.87,1054l9.12-49.39,28.87,40.49Z" transform="translate(84.93 83.53)"/><path class="cls-2" d="M798.51,1050.29l-20.4,27L792.69,1107l-31.85-10.32-24.42,23.51.71-33.36-29.67-15.24,32.29-10.29,6.08-32.93,19.25,27Z" transform="translate(84.93 83.53)"/><path class="cls-1" d="M777.29,1062.87l-10.2,13.48,7.29,14.89-15.92-5.16-12.21,11.75.36-16.68-14.84-7.62,16.15-5.14,3-16.46,9.62,13.49Z" transform="translate(84.93 83.53)"/><path class="cls-1" d="M240.24,1110l-49.43,66.5,36.59,74.34-78.52-26.46-59.39,57.77.9-82.85-73.3-38.64,79.08-24.74,14.09-81.65,48,67.56Z" transform="translate(84.93 83.53)"/><path class="cls-2" d="M221.23,1121.34l-40.81,54,29.17,59.54-63.7-20.64L97,1261.2l1.44-66.71L39.13,1164l64.59-20.59,12.16-65.85,38.48,54Z" transform="translate(84.93 83.53)"/><path class="cls-1" d="M200.56,1133.66,170,1174.12l21.87,44.65-47.78-15.48-36.63,35.26,1.08-50L64,1165.66l48.44-15.44,9.12-49.39,28.87,40.49Z" transform="translate(84.93 83.53)"/><path class="cls-2" d="M179.06,1146.47l-20.4,27,14.58,29.77-31.85-10.32L117,1216.39l.72-33.35L88,1167.8l32.3-10.29,6.08-32.93,19.24,27Z" transform="translate(84.93 83.53)"/><path class="cls-1" d="M157.85,1159.05l-10.2,13.48,7.29,14.89L139,1182.26,126.8,1194l.36-16.68-14.84-7.62,16.15-5.14,3-16.47,9.62,13.5Z" transform="translate(84.93 83.53)"/><path class="cls-1" d="M416.52,1026.19l-49.43,66.5L403.68,1167l-78.52-26.46-59.39,57.77.9-82.85-73.3-38.63,79.08-24.75,14.09-81.65,48,67.56Z" transform="translate(84.93 83.53)"/><path class="cls-2" d="M397.5,1037.52l-40.8,54L385.86,1151l-63.7-20.64-48.84,47,1.43-66.71-59.35-30.48L280,1059.6l12.16-65.85,38.49,54Z" transform="translate(84.93 83.53)"/><path class="cls-1" d="M376.83,1049.84l-30.6,40.46L368.11,1135l-47.78-15.49-36.63,35.26,1.07-50-44.51-22.86,48.44-15.44,9.12-49.39,28.86,40.49Z" transform="translate(84.93 83.53)"/><path class="cls-2" d="M355.34,1062.65l-20.4,27,14.58,29.77-31.85-10.32-24.42,23.51.71-33.36L264.29,1084l32.29-10.29,6.08-32.92,19.25,27Z" transform="translate(84.93 83.53)"/><path class="cls-1" d="M334.12,1075.23l-10.2,13.49,7.29,14.88-15.92-5.16-12.21,11.75.36-16.67-14.84-7.62,16.14-5.15,3-16.46,9.63,13.49Z" transform="translate(84.93 83.53)"/><path class="cls-1" d="M290.21,450.06l-49.43,66.5,36.6,74.34-78.52-26.46-59.4,57.77.91-82.85-73.3-38.64L146.14,476l14.1-81.65,48,67.56Z" transform="translate(84.93 83.53)"/><path class="cls-2" d="M271.2,461.39l-40.8,54,29.16,59.54-63.7-20.64-48.84,47,1.43-66.71L89.1,504.06l64.59-20.59,12.16-65.85,38.48,54Z" transform="translate(84.93 83.53)"/><path class="cls-1" d="M250.53,473.71l-30.6,40.46,21.87,44.65L194,543.34,157.39,578.6l1.08-50L114,505.71l48.45-15.44,9.12-49.39,28.86,40.49Z" transform="translate(84.93 83.53)"/><path class="cls-2" d="M229,486.52l-20.4,27,14.59,29.77-31.86-10.32-24.42,23.51.72-33.36L138,507.85l32.3-10.29,6.08-32.93,19.24,27Z" transform="translate(84.93 83.53)"/><path class="cls-1" d="M207.82,499.1l-10.2,13.48,7.29,14.89L189,522.31l-12.21,11.75.36-16.68-14.84-7.62,16.15-5.14,3-16.47,9.62,13.5Z" transform="translate(84.93 83.53)"/><path class="cls-1" d="M670.55,511.31l-49.43,66.5,36.59,74.34-78.52-26.46L519.8,683.46l.9-82.85L447.4,562l79.08-24.74,14.09-81.65,48,67.56Z" transform="translate(84.93 83.53)"/><path class="cls-2" d="M651.53,522.64l-40.8,54,29.16,59.54-63.7-20.64-48.84,47,1.43-66.71-59.35-30.48L534,544.72l12.16-65.85,38.49,54Z" transform="translate(84.93 83.53)"/><path class="cls-1" d="M630.86,535l-30.6,40.46,21.88,44.65-47.78-15.48-36.63,35.26,1.07-50L494.29,567l48.44-15.44,9.12-49.39,28.86,40.49Z" transform="translate(84.93 83.53)"/><path class="cls-2" d="M609.37,547.77l-20.4,27,14.58,29.77L571.7,594.19,547.28,617.7l.71-33.36L518.32,569.1l32.29-10.29,6.08-32.93,19.25,27Z" transform="translate(84.93 83.53)"/><path class="cls-1" d="M588.15,560.35,578,573.83l7.29,14.89-15.92-5.16-12.21,11.75.36-16.68L542.63,571l16.14-5.14,3-16.46,9.63,13.49Z" transform="translate(84.93 83.53)"/><path class="cls-1" d="M735.93,330l-49.43,66.5,36.59,74.34-78.52-26.46-59.39,57.77.9-82.85-73.3-38.64,79.08-24.74L606,274.26l48,67.56Z" transform="translate(84.93 83.53)"/><path class="cls-2" d="M716.92,341.32l-40.81,53.95,29.17,59.54-63.7-20.64-48.85,47,1.44-66.71L534.82,384,599.4,363.4l12.16-65.85,38.49,54Z" transform="translate(84.93 83.53)"/><path class="cls-1" d="M696.25,353.64,665.64,394.1l21.88,44.65-47.78-15.48-36.63,35.26,1.08-50-44.52-22.86,48.44-15.44,9.12-49.39L646.1,361.3Z" transform="translate(84.93 83.53)"/><path class="cls-2" d="M674.75,366.45l-20.4,27,14.58,29.77-31.85-10.32-24.42,23.51.72-33.36L583.7,387.78,616,377.49l6.08-32.93,19.24,27Z" transform="translate(84.93 83.53)"/><path class="cls-1" d="M653.54,379l-10.21,13.48,7.3,14.89-15.93-5.16L622.49,414l.36-16.68L608,389.69l16.15-5.14,3-16.47,9.62,13.5Z" transform="translate(84.93 83.53)"/><path class="cls-1" d="M836.3-27.8,786.87,38.7,823.46,113,744.94,86.58l-59.39,57.77.9-82.85-73.3-38.64L692.23-1.88l14.09-81.65,48,67.56Z" transform="translate(84.93 83.53)"/><path class="cls-2" d="M817.28-16.47l-40.8,54L805.64,97l-63.7-20.64-48.84,47,1.43-66.71L635.18,26.2,699.77,5.61l12.16-65.85,38.49,54Z" transform="translate(84.93 83.53)"/><path class="cls-1" d="M796.61-4.15,766,36.31,787.89,81,740.11,65.48l-36.63,35.26,1.07-50L660,27.85l48.44-15.44L717.6-37,746.46,3.51Z" transform="translate(84.93 83.53)"/><path class="cls-2" d="M775.12,8.66l-20.4,27L769.3,65.4,737.45,55.08,713,78.59l.71-33.36L684.07,30,716.36,19.7l6.08-32.93,19.25,27Z" transform="translate(84.93 83.53)"/><path class="cls-1" d="M753.9,21.24,743.7,34.72,751,49.61l-15.92-5.16L722.86,56.2l.36-16.68L708.38,31.9l16.14-5.14,3-16.47,9.63,13.5Z" transform="translate(84.93 83.53)"/><path class="cls-1" d="M-84.93,283.49-34.22,218l-35.14-75,78,28,60.5-56.61-2.51,82.82,72.54,40L59.62,260.36,44,341.72-2.7,273.25Z" transform="translate(84.93 83.53)"/><path d="M-65.7,272.52l41.85-53.15-28-60.09,63.29,21.87L61.17,135.1l-2.72,66.67,58.75,31.62-65,19.33L38.79,318.33,1.36,263.61Z" transform="translate(84.93 83.53)"/><path class="cls-1" d="M-44.79,260.61l31.38-39.86-21-45.07,47.47,16.4,37.31-34.54-2,50,44.07,23.72-48.73,14.5L33.57,295l-28.07-41Z" transform="translate(84.93 83.53)"/><path d="M-23,248.22l20.92-26.57-14-30.05,31.65,10.94,24.87-23L39,212.84l29.37,15.81-32.48,9.67-6.72,32.8L10.47,243.76Z" transform="translate(84.93 83.53)"/><path class="cls-1" d="M-1.6,236.05,8.86,222.77l-7-15,15.82,5.47L30.12,201.7l-.68,16.66,14.68,7.91L27.88,231.1l-3.36,16.4-9.36-13.68Z" transform="translate(84.93 83.53)"/><path class="cls-1" d="M-66.92,1088.61l50.71-65.53-35.14-75,78,28,60.5-56.61-2.51,82.82,72.54,40-79.54,23.21L62,1146.84l-46.65-68.47Z" transform="translate(84.93 83.53)"/><path d="M-47.68,1077.64l41.84-53.15-28-60.09,63.29,21.87,49.74-46-2.72,66.66,58.75,31.63-65,19.33-13.43,65.6-37.43-54.71Z" transform="translate(84.93 83.53)"/><path class="cls-1" d="M-26.78,1065.73,4.6,1025.87l-21-45.07,47.47,16.4,37.31-34.54-2,50,44.06,23.72-48.73,14.5-10.08,49.2-28.07-41Z" transform="translate(84.93 83.53)"/><path d="M-5,1053.34l20.92-26.58-14-30,31.64,10.93,24.87-23L57,1018l29.37,15.81-32.48,9.67-6.72,32.8-18.72-27.36Z" transform="translate(84.93 83.53)"/><path class="cls-1" d="M16.41,1041.17l10.46-13.28-7-15,15.82,5.47,12.44-11.51-.68,16.66,14.69,7.91-16.25,4.83-3.36,16.4-9.35-13.68Z" transform="translate(84.93 83.53)"/><path class="cls-1" d="M460.12,1180.49l-71.34,42.16,4.94,82.71-62.14-54.81-77.13,30.25,32.92-76-52.61-64,82.49,7.83,44.62-69.82,18.06,80.87Z" transform="translate(84.93 83.53)"/><path class="cls-2" d="M438.2,1183.57l-58.52,33.93,3.82,66.19L332.77,1240l-63.24,24.42,27.16-60.94-42.91-51.1,67.53,6.05,36.71-56,14.57,64.68Z" transform="translate(84.93 83.53)"/><path class="cls-1" d="M414.37,1186.92l-43.89,25.45,2.87,49.64-38.05-32.78-47.43,18.31,20.37-45.71-32.18-38.32L326.7,1168l27.54-42,10.93,48.51Z" transform="translate(84.93 83.53)"/><path class="cls-2" d="M389.59,1190.4l-29.26,17,1.91,33.09-25.36-21.85-31.62,12.21,13.58-30.48-21.46-25.54,33.76,3,18.36-28,7.29,32.34Z" transform="translate(84.93 83.53)"/><path class="cls-1" d="M365.16,1193.78l-14.63,8.48,1,16.55-12.68-10.93L323,1214l6.79-15.24L319.05,1186l16.88,1.51,9.18-14,3.65,16.17Z" transform="translate(84.93 83.53)"/><path class="cls-1" d="M825.43,1094.92,776,1161.42l36.59,74.34-78.51-26.46-59.4,57.77.9-82.85-73.3-38.63,79.08-24.75,14.09-81.65,48,67.56Z" transform="translate(84.93 83.53)"/><path class="cls-2" d="M806.42,1106.25l-40.81,54,29.17,59.54-63.7-20.64-48.85,47,1.44-66.71-59.35-30.48,64.59-20.59,12.16-65.85,38.48,54Z" transform="translate(84.93 83.53)"/><path class="cls-1" d="M785.75,1118.57,755.15,1159,777,1203.69l-47.78-15.49-36.63,35.26,1.08-50-44.52-22.86,48.44-15.44,9.12-49.39,28.87,40.49Z" transform="translate(84.93 83.53)"/><path class="cls-2" d="M764.25,1131.38l-20.4,27,14.58,29.77-31.85-10.32-24.42,23.51.72-33.36-29.68-15.24,32.3-10.29,6.08-32.92,19.24,27Z" transform="translate(84.93 83.53)"/><path class="cls-1" d="M743,1144l-10.2,13.49,7.29,14.88-15.93-5.16L712,1178.92l.36-16.67-14.84-7.62,16.15-5.15,3-16.46,9.62,13.49Z" transform="translate(84.93 83.53)"/><path class="cls-1" d="M511.09,1223.7l50.71-65.53-35.15-75,78,28,60.51-56.61-2.51,82.82,72.54,40-79.55,23.2L640,1281.94l-46.65-68.48Z" transform="translate(84.93 83.53)"/><path d="M530.32,1212.74l41.84-53.15-28-60.09,63.3,21.87,49.74-46.06L654.46,1142l58.75,31.62-65,19.34-13.44,65.6-37.43-54.72Z" transform="translate(84.93 83.53)"/><path class="cls-1" d="M551.22,1200.82,582.6,1161l-21-45.07,47.47,16.41,37.31-34.55-2,50,44.06,23.72L639.66,1186l-10.07,49.2-28.08-41Z" transform="translate(84.93 83.53)"/><path d="M573,1188.43l20.92-26.57-14-30,31.65,10.94,24.87-23L635,1153.05l29.38,15.82-32.49,9.66-6.72,32.8L606.49,1184Z" transform="translate(84.93 83.53)"/><path class="cls-1" d="M594.42,1176.27,604.88,1163l-7-15,15.82,5.46,12.43-11.51-.68,16.67,14.69,7.9-16.24,4.84-3.36,16.4L611.18,1174Z" transform="translate(84.93 83.53)"/><path class="cls-1" d="M236.24,408.69,287,343.17l-35.14-75,78,28,60.5-56.61-2.51,82.82,72.54,40-79.54,23.21-15.67,81.36-46.65-68.47Z" transform="translate(84.93 83.53)"/><path d="M255.47,397.73l41.84-53.15-28-60.09,63.29,21.87,49.74-46.05L379.62,327l58.75,31.63-65,19.33L360,443.53l-37.43-54.72Z" transform="translate(84.93 83.53)"/><path class="cls-1" d="M276.38,385.82,307.76,346l-21-45.07,47.47,16.4,37.31-34.54-2,50,44.07,23.72L364.81,371l-10.07,49.2-28.07-41Z" transform="translate(84.93 83.53)"/><path d="M298.12,373.43,319,346.85l-14-30,31.65,10.93,24.87-23-1.36,33.33,29.37,15.81-32.49,9.67-6.71,32.8L331.64,369Z" transform="translate(84.93 83.53)"/><path class="cls-1" d="M319.57,361.26,330,348l-7-15,15.82,5.47,12.44-11.51-.68,16.66,14.68,7.91-16.24,4.83-3.36,16.4L336.33,359Z" transform="translate(84.93 83.53)"/><path class="cls-1" d="M269.08,160.35l-49.43,66.5,36.59,74.34-78.51-26.46-59.4,57.77.9-82.85L45.93,211,125,186.27l14.09-81.65,48,67.56Z" transform="translate(84.93 83.53)"/><path class="cls-2" d="M250.07,171.68l-40.81,53.95,29.17,59.54-63.7-20.64-48.85,47,1.44-66.71L68,214.35l64.59-20.59,12.16-65.85,38.48,54Z" transform="translate(84.93 83.53)"/><path class="cls-1" d="M229.4,184l-30.6,40.46,21.87,44.65-47.78-15.48-36.63,35.26,1.08-50L92.82,216l48.44-15.44,9.12-49.39,28.87,40.49Z" transform="translate(84.93 83.53)"/><path class="cls-2" d="M207.9,196.81l-20.4,27,14.58,29.77-31.85-10.32-24.42,23.51.72-33.36-29.68-15.24,32.3-10.29,6.08-32.93,19.24,27Z" transform="translate(84.93 83.53)"/><path class="cls-1" d="M186.69,209.39l-10.2,13.49,7.29,14.88-15.93-5.16-12.21,11.75.36-16.67-14.84-7.62,16.15-5.15,3-16.46L170,211.94Z" transform="translate(84.93 83.53)"/><path class="cls-1" d="M173.15,88l-49.43,66.5,36.59,74.34L81.79,202.36,22.4,260.14l.9-82.85L-50,138.65l79.08-24.74L43.17,32.26l48,67.56Z" transform="translate(84.93 83.53)"/><path class="cls-2" d="M154.13,99.32l-40.8,54,29.16,59.54-63.7-20.65L30,239.17l1.43-66.7L-28,142,36.62,121.4,48.78,55.55l38.49,54Z" transform="translate(84.93 83.53)"/><path class="cls-1" d="M133.46,111.64l-30.6,40.46,21.87,44.65L77,181.27,40.33,216.53l1.07-50L-3.11,143.64,45.33,128.2l9.12-49.39L83.31,119.3Z" transform="translate(84.93 83.53)"/><path class="cls-2" d="M112,124.45l-20.4,27,14.58,29.77L74.3,170.87l-24.42,23.5L50.59,161,20.92,145.78l32.29-10.29,6.08-32.93,19.24,27Z" transform="translate(84.93 83.53)"/><path class="cls-1" d="M90.75,137l-10.2,13.49,7.29,14.89-15.92-5.16L59.71,172l.35-16.68-14.83-7.62,16.14-5.15,3-16.46L74,139.58Z" transform="translate(84.93 83.53)"/><path class="cls-1" d="M-44.62,125.63,6.09,60.1-29-14.94l78,28,60.5-56.61-2.51,82.82,72.54,40L99.93,102.5,84.26,183.86,37.61,115.39Z" transform="translate(84.93 83.53)"/><path d="M-25.39,114.66,16.46,61.51l-28-60.09L51.74,23.29l49.74-46L98.76,43.91l58.75,31.62-65,19.33L79.1,160.47,41.67,105.75Z" transform="translate(84.93 83.53)"/><path class="cls-1" d="M-4.48,102.75,26.9,62.89l-21-45.07,47.47,16.4L90.67-.32l-2,50L132.69,73.4,84,87.9,73.88,137.1l-28.07-41Z" transform="translate(84.93 83.53)"/><path d="M17.26,90.36,38.18,63.79l-14-30L55.82,44.68l24.87-23L79.33,55,108.7,70.79,76.22,80.46l-6.72,32.8L50.78,85.9Z" transform="translate(84.93 83.53)"/><path class="cls-1" d="M38.71,78.19,49.17,64.91l-7-15L58,55.35,70.43,43.84,69.75,60.5l14.68,7.91L68.19,73.24l-3.36,16.4L55.47,76Z" transform="translate(84.93 83.53)"/><path class="cls-1" d="M67.43,181.56,118.14,116,83,41l78,28,60.5-56.62L219,95.18l72.53,40L212,158.44,196.3,239.8l-46.65-68.48Z" transform="translate(84.93 83.53)"/><path d="M86.66,170.6l41.84-53.15-28-60.09,63.29,21.87,49.75-46.05L210.8,99.84l58.75,31.63-65,19.33-13.44,65.6-37.43-54.72Z" transform="translate(84.93 83.53)"/><path class="cls-1" d="M107.56,158.69l31.38-39.86-21-45.07,47.47,16.4,37.3-34.54-2,50,44.06,23.72L196,143.84,185.92,193l-28.07-41Z" transform="translate(84.93 83.53)"/><path d="M129.3,146.3l20.92-26.58-14-30,31.64,10.93,24.88-23-1.37,33.34,29.38,15.81-32.49,9.67-6.72,32.8-18.71-27.36Z" transform="translate(84.93 83.53)"/><path class="cls-1" d="M150.76,134.13l10.46-13.29-7-15L170,111.29l12.43-11.51-.68,16.66,14.69,7.91-16.25,4.83-3.35,16.4-9.36-13.68Z" transform="translate(84.93 83.53)"/><path class="cls-1" d="M256.34-14.37l-49.43,66.5,36.59,74.34L165,100l-59.39,57.77.9-82.85L33.19,36.29l79.08-24.74L126.36-70.1l48,67.56Z" transform="translate(84.93 83.53)"/><path class="cls-2" d="M237.32-3l-40.8,54,29.17,59.54L162,89.81l-48.84,47,1.44-66.71L55.22,39.63,119.81,19,132-46.81l38.49,54Z" transform="translate(84.93 83.53)"/><path class="cls-1" d="M216.66,9.28,186.05,49.74l21.88,44.65L160.15,78.91l-36.63,35.26,1.07-50L80.08,41.28l48.44-15.44,9.12-49.39,28.87,40.49Z" transform="translate(84.93 83.53)"/><path class="cls-2" d="M195.16,22.09l-20.4,27,14.58,29.77L157.49,68.51,133.07,92l.71-33.36L104.11,43.42,136.4,33.13,142.48.2l19.25,27Z" transform="translate(84.93 83.53)"/><path class="cls-1" d="M173.94,34.67l-10.2,13.48L171,63l-15.92-5.16L142.9,69.63,143.26,53l-14.84-7.62,16.15-5.14,3-16.47,9.62,13.5Z" transform="translate(84.93 83.53)"/><path class="cls-1" d="M-21.29,322.54,29.42,257-5.73,182l78,28,60.5-56.61-2.5,82.82,72.54,40-79.55,23.21-15.67,81.36L60.93,312.3Z" transform="translate(84.93 83.53)"/><path d="M-2.06,311.58l41.84-53.15-28-60.09,63.29,21.87,49.75-46.06-2.73,66.67,58.75,31.63-65,19.33-13.44,65.6L65,302.66Z" transform="translate(84.93 83.53)"/><path class="cls-1" d="M18.84,299.66,50.22,259.8l-21-45.07,47.47,16.41L114,196.6l-2,50L156,270.32l-48.73,14.49L97.21,334,69.13,293Z" transform="translate(84.93 83.53)"/><path d="M40.58,287.27,61.5,260.7l-14-30,31.64,10.94,24.88-23-1.37,33.33L132,267.71l-32.49,9.66-6.72,32.8L74.11,282.82Z" transform="translate(84.93 83.53)"/><path class="cls-1" d="M62,275.11,72.5,261.82l-7-15,15.83,5.47,12.43-11.52-.68,16.67,14.69,7.91-16.24,4.83-3.36,16.4L78.8,272.88Z" transform="translate(84.93 83.53)"/><path class="cls-1" d="M150.29,303.89l-49.43,66.5,36.59,74.34L58.93,418.27-.46,476l.9-82.85-73.3-38.63L6.22,329.81l14.09-81.65,48,67.56Z" transform="translate(84.93 83.53)"/><path class="cls-2" d="M131.27,315.22l-40.8,53.95,29.16,59.54-63.7-20.64-48.84,47,1.43-66.71-59.35-30.48L13.76,337.3l12.16-65.85,38.48,54Z" transform="translate(84.93 83.53)"/><path class="cls-1" d="M110.6,327.54,80,368l21.87,44.66L54.1,397.17,17.47,432.43l1.07-50L-26,359.54,22.47,344.1l9.12-49.39L60.45,335.2Z" transform="translate(84.93 83.53)"/><path class="cls-2" d="M89.11,340.35l-20.41,27,14.59,29.77L51.44,386.77,27,410.28l.71-33.36L-1.94,361.68l32.29-10.29,6.08-32.92,19.24,27Z" transform="translate(84.93 83.53)"/><path class="cls-1" d="M67.89,352.93l-10.2,13.49L65,381.3l-15.92-5.16L36.85,387.89l.35-16.67L22.37,363.6l16.14-5.15,3-16.46,9.62,13.49Z" transform="translate(84.93 83.53)"/><path class="cls-1" d="M370.23,238.84l-71.7,41.52,4.2,82.75-61.65-55.37-77.4,29.57,33.6-75.74-52-64.48,82.42,8.56,45.24-69.42,17.33,81Z" transform="translate(84.93 83.53)"/><path class="cls-2" d="M348.29,241.72l-58.82,33.41,3.23,66.22-50.34-44.16L178.91,321l27.7-60.69-42.45-51.48,67.47,6.64,37.21-55.66,14,64.8Z" transform="translate(84.93 83.53)"/><path class="cls-1" d="M324.43,244.86l-44.11,25.05,2.42,49.67L245,286.46,197.4,304.35l20.78-45.52-31.84-38.61,50.6,5,27.91-41.75,10.49,48.61Z" transform="translate(84.93 83.53)"/><path class="cls-2" d="M299.62,248.12l-29.41,16.7,1.62,33.11-25.17-22.08-31.73,11.93,13.85-30.35-21.22-25.74L241.29,235l18.61-27.83,7,32.4Z" transform="translate(84.93 83.53)"/><path class="cls-1" d="M275.16,251.28l-14.71,8.35.81,16.56-12.58-11-15.87,6,6.93-15.18-10.61-12.86L246,244.73l9.31-13.92,3.5,16.2Z" transform="translate(84.93 83.53)"/><path class="cls-1" d="M72.28,384.28l67-48.75-12.78-81.86,67.07,48.66,73.91-37.45L241.93,343.7l58.46,58.72-82.86.05-37.78,73.74-25.66-78.78Z" transform="translate(84.93 83.53)"/><path d="M93.81,379.13l55-39.34-10.1-65.52L193.4,313,254,282.64l-21.25,63.25,47.57,46.78-67.78.4-31.24,59.24-20.65-63Z" transform="translate(84.93 83.53)"/><path class="cls-1" d="M117.21,373.53,158.48,344l-7.57-49.14,41,29,45.48-22.74L221.44,348.6l35.68,35.09-50.84.3-23.43,44.43-15.48-47.25Z" transform="translate(84.93 83.53)"/><path d="M141.55,367.71,169.06,348,164,315.28l27.33,19.34,30.32-15.15L211,351.09l23.79,23.39-33.9.2L185.31,404.3,175,372.8Z" transform="translate(84.93 83.53)"/><path class="cls-1" d="M165.55,362l13.75-9.84-2.52-16.38,13.66,9.67,15.16-7.58-5.31,15.82,11.89,11.69-16.94.1-7.81,14.81-5.16-15.75Z" transform="translate(84.93 83.53)"/><path class="cls-1" d="M187.58,191.71l50.71-65.53-35.15-75,78,28,60.5-56.62-2.5,82.82,72.53,40.05-79.54,23.21L316.45,250,269.8,181.47Z" transform="translate(84.93 83.53)"/><path d="M206.81,180.75l41.84-53.15-28-60.09,63.29,21.87,49.75-46L331,110l58.75,31.63-65,19.33-13.44,65.6-37.43-54.72Z" transform="translate(84.93 83.53)"/><path class="cls-1" d="M227.71,168.84,259.09,129l-21-45.07,47.47,16.4,37.3-34.54-2,50,44.06,23.72L316.15,154l-10.08,49.2-28.07-41Z" transform="translate(84.93 83.53)"/><path d="M249.45,156.45l20.92-26.58-14-30L288,110.76l24.88-23-1.37,33.34,29.38,15.81-32.49,9.67-6.72,32.8L283,152Z" transform="translate(84.93 83.53)"/><path class="cls-1" d="M270.91,144.28,281.37,131l-7-15,15.83,5.47,12.43-11.51-.68,16.66,14.69,7.91-16.25,4.83L297,155.73l-9.36-13.68Z" transform="translate(84.93 83.53)"/><path class="cls-1" d="M186.21,109.16l50.71-65.53-35.15-75,78,28L340.27-60l-2.51,82.82,72.54,40L330.76,86,315.09,167.4,268.43,98.92Z" transform="translate(84.93 83.53)"/><path d="M205.44,98.19l41.84-53.14-28-60.1L282.57,6.83l49.74-46.06-2.72,66.67,58.75,31.62-65,19.33L309.93,144,272.49,89.28Z" transform="translate(84.93 83.53)"/><path class="cls-1" d="M226.35,86.28l31.38-39.86-21-45.07,47.47,16.4L321.5-16.79l-2.05,50,44.07,23.72-48.74,14.5-10.07,49.2-28.08-41Z" transform="translate(84.93 83.53)"/><path d="M248.08,73.89,269,47.32l-14-30,31.65,10.94,24.87-23-1.36,33.33,29.37,15.82L307,64l-6.71,32.8L281.61,69.43Z" transform="translate(84.93 83.53)"/><path class="cls-1" d="M269.54,61.73,280,48.44l-7-15,15.82,5.46,12.44-11.51L300.58,44l14.68,7.9L299,56.78l-3.36,16.4L286.3,59.5Z" transform="translate(84.93 83.53)"/><path class="cls-1" d="M391.93,374.12l-49.43,66.5L379.09,515,300.57,488.5l-59.39,57.77.9-82.85-73.3-38.64L247.86,400,262,318.39l48,67.56Z" transform="translate(84.93 83.53)"/><path class="cls-2" d="M372.91,385.45l-40.8,53.95,29.16,59.54-63.7-20.64-48.84,47,1.43-66.71-59.35-30.48,64.59-20.59,12.16-65.85,38.49,54Z" transform="translate(84.93 83.53)"/><path class="cls-1" d="M352.24,397.77l-30.6,40.46,21.88,44.65L295.74,467.4l-36.63,35.26,1.07-50-44.51-22.86,48.44-15.44,9.12-49.39,28.86,40.49Z" transform="translate(84.93 83.53)"/><path class="cls-2" d="M330.75,410.58l-20.4,27,14.58,29.77L293.08,457l-24.42,23.51.71-33.36L239.7,431.91,272,421.62l6.08-32.93,19.25,27Z" transform="translate(84.93 83.53)"/><path class="cls-1" d="M309.53,423.16l-10.2,13.48,7.29,14.89-15.92-5.16-12.21,11.75.36-16.68L264,433.82l16.14-5.14,3-16.47,9.63,13.5Z" transform="translate(84.93 83.53)"/><path class="cls-1" d="M495.07,51.72l-49.43,66.5,36.6,74.34-78.52-26.47-59.4,57.78.91-82.86-73.3-38.63L351,77.64,365.1-4l48,67.57Z" transform="translate(84.93 83.53)"/><path class="cls-2" d="M476.06,63.05l-40.8,54,29.16,59.53-63.7-20.64-48.84,47,1.43-66.7L294,105.71l64.59-20.58,12.16-65.85,38.48,54Z" transform="translate(84.93 83.53)"/><path class="cls-1" d="M455.39,75.36l-30.6,40.47,21.87,44.65L398.88,145l-36.63,35.26,1.08-50-44.52-22.87,48.45-15.44,9.12-49.38L405.24,83Z" transform="translate(84.93 83.53)"/><path class="cls-2" d="M433.89,88.17l-20.4,27,14.59,29.77L396.22,134.6,371.8,158.1l.72-33.35-29.68-15.24,32.3-10.3,6.08-32.92,19.24,27Z" transform="translate(84.93 83.53)"/><path class="cls-1" d="M412.68,100.75l-10.2,13.49,7.29,14.89L393.84,124l-12.21,11.76L382,119l-14.84-7.62,16.15-5.15,3-16.46,9.62,13.5Z" transform="translate(84.93 83.53)"/><path class="cls-1" d="M298.25,318.37,349,252.85l-35.14-75,78,28,60.5-56.61L449.8,232l72.54,40L442.8,295.25l-15.67,81.36-46.65-68.47Z" transform="translate(84.93 83.53)"/><path d="M317.49,307.41l41.84-53.15-28-60.09L394.61,216l49.75-46-2.73,66.66,58.75,31.63-65,19.33L422,353.21l-37.43-54.72Z" transform="translate(84.93 83.53)"/><path class="cls-1" d="M338.39,295.5l31.38-39.86-21-45.07L396.23,227l37.31-34.54-2,50,44.06,23.72-48.73,14.5-10.08,49.2-28.07-41Z" transform="translate(84.93 83.53)"/><path d="M360.13,283.11l20.92-26.58-14-30,31.64,10.93,24.87-23-1.36,33.33,29.38,15.81-32.49,9.67L412.37,306l-18.71-27.36Z" transform="translate(84.93 83.53)"/><path class="cls-1" d="M381.58,270.94,392,257.65l-7-15,15.82,5.47,12.44-11.51-.68,16.66,14.69,7.91L411.06,266l-3.36,16.4-9.35-13.68Z" transform="translate(84.93 83.53)"/><path class="cls-1" d="M670.46,678.87l-42.64-71-82.67,5.5,54.39-62.51-30.78-76.93L645,506.3l63.66-53-7.26,82.54,70.11,44.14-80.74,18.6Z" transform="translate(84.93 83.53)"/><path d="M667.23,657l-34.32-58.28L566.75,603l43.36-51-24.85-63.07,61.12,26.75,50.81-43.26-5.59,67.56,56.25,36.34-64.58,15Z" transform="translate(84.93 83.53)"/><path class="cls-1" d="M663.72,633.17,638,589.46l-49.62,3.2,32.52-38.27-18.64-47.3,45.85,20.06,38.1-32.44L682,545.38l42.19,27.25-48.44,11.26Z" transform="translate(84.93 83.53)"/><path d="M660.07,608.42l-17.16-29.15-33.08,2.14,21.68-25.51-12.42-31.54,30.56,13.37,25.4-21.62-2.79,33.78,28.12,18.17-32.29,7.5Z" transform="translate(84.93 83.53)"/><path class="cls-1" d="M656.53,584,648,569.44l-16.54,1.07,10.84-12.76L636,542l15.28,6.69L664,537.85l-1.4,16.89,14.06,9.09-16.14,3.75Z" transform="translate(84.93 83.53)"/><path class="cls-1" d="M451,558.09l44,70.21,82.55-7.1-53.17,63.55,32.27,76.32-76.87-30.93-62.62,54.27,5.66-82.67-71-42.78,80.37-20.16Z" transform="translate(84.93 83.53)"/><path class="cls-2" d="M454.65,579.92l35.45,57.61L556.17,632,513.8,683.84l26.07,62.58-61.64-25.56-50,44.23,4.27-67.66-56.94-35.24,64.28-16.25Z" transform="translate(84.93 83.53)"/><path class="cls-1" d="M458.62,603.66l26.59,43.2,49.55-4.16L503,681.59l19.55,46.93-46.22-19.16-37.47,33.17,3.21-50.74-42.71-26.43,48.21-12.2Z" transform="translate(84.93 83.53)"/><path class="cls-2" d="M462.75,628.34l17.73,28.8,33-2.78-21.18,25.93,13,31.29L474.54,698.8l-25,22.12,2.13-33.83-28.47-17.62,32.14-8.13Z" transform="translate(84.93 83.53)"/><path class="cls-1" d="M466.77,652.67l8.86,14.4,16.52-1.39-10.6,13,6.52,15.64-15.41-6.39L460.18,699l1.06-16.91L447,673.24l16.07-4.07Z" transform="translate(84.93 83.53)"/><path class="cls-1" d="M348.74,621.2l44,70.21,82.55-7.1-53.17,63.55,32.26,76.32-76.86-30.93-62.62,54.27,5.66-82.67-71-42.78L330,701.91Z" transform="translate(84.93 83.53)"/><path class="cls-2" d="M352.39,643l35.45,57.61,66.06-5.55L411.54,747l26.06,62.58L376,784,326,828.2l4.27-67.66L273.35,725.3,337.63,709Z" transform="translate(84.93 83.53)"/><path class="cls-1" d="M356.36,666.76,383,710l49.55-4.17-31.78,38.9,19.55,46.93-46.22-19.17-37.47,33.18,3.21-50.75-42.71-26.43,48.21-12.19Z" transform="translate(84.93 83.53)"/><path class="cls-2" d="M360.49,691.44l17.72,28.81,33-2.78L390.06,743.4l13,31.29-30.82-12.78L347.3,784l2.14-33.83L321,732.58l32.14-8.13Z" transform="translate(84.93 83.53)"/><path class="cls-1" d="M364.51,715.78l8.86,14.4,16.52-1.39-10.6,13,6.52,15.64L370.4,751l-12.49,11.06L359,745.16l-14.23-8.81,16.07-4.07Z" transform="translate(84.93 83.53)"/><path class="cls-1" d="M304.73,837.77l-42.64-71-82.68,5.49,54.39-62.5L203,632.79l76.26,32.41,63.65-53.05-7.26,82.54,70.12,44.15-80.74,18.6Z" transform="translate(84.93 83.53)"/><path d="M301.5,815.87l-34.33-58.29L201,761.86l43.36-51-24.84-63.07,61.12,26.75,50.8-43.26-5.58,67.56,56.25,36.34-64.58,15Z" transform="translate(84.93 83.53)"/><path class="cls-1" d="M298,792.07l-25.75-43.72-49.61,3.21,32.52-38.27L236.51,666,282.35,686l38.11-32.44-4.19,50.67,42.18,27.26L310,742.78Z" transform="translate(84.93 83.53)"/><path d="M294.34,767.31l-17.16-29.14-33.08,2.14,21.68-25.52-12.43-31.53,30.57,13.37L309.32,675l-2.8,33.78L334.65,727l-32.29,7.5Z" transform="translate(84.93 83.53)"/><path class="cls-1" d="M290.8,742.9l-8.59-14.57-16.54,1.07,10.84-12.76-6.21-15.76,15.28,6.68,12.7-10.81-1.39,16.89L311,722.72l-16.15,3.76Z" transform="translate(84.93 83.53)"/><path class="cls-1" d="M397.53,753.69l-42.64-71.05-82.67,5.5,54.39-62.51L295.83,548.7l76.25,32.41,63.66-53-7.26,82.54,70.12,44.15-80.75,18.6Z" transform="translate(84.93 83.53)"/><path d="M394.3,731.79,360,673.5l-66.16,4.27,43.36-51-24.85-63.08,61.13,26.75,50.8-43.25-5.58,67.56,56.24,36.34-64.58,15Z" transform="translate(84.93 83.53)"/><path class="cls-1" d="M390.79,708l-25.74-43.71-49.62,3.21L348,629.2l-18.63-47.3L375.16,602l38.1-32.44-4.19,50.67,42.19,27.25L402.82,658.7Z" transform="translate(84.93 83.53)"/><path d="M387.14,683.23,370,654.09l-33.08,2.13,21.68-25.51-12.42-31.54,30.56,13.38,25.4-21.63-2.79,33.78,28.12,18.17-32.29,7.5Z" transform="translate(84.93 83.53)"/><path class="cls-1" d="M383.6,658.82,375,644.25l-16.54,1.07,10.84-12.76-6.21-15.77,15.28,6.69,12.7-10.81-1.4,16.89,14.06,9.08-16.14,3.75Z" transform="translate(84.93 83.53)"/><path class="cls-1" d="M283.58,506.52l44,70.2,82.55-7.1L357,633.17l32.26,76.32-76.87-30.92-62.61,54.26,5.66-82.66-71-42.78,80.37-20.16Z" transform="translate(84.93 83.53)"/><path class="cls-2" d="M287.23,528.35,322.68,586l66.06-5.55-42.36,51.85,26.06,62.58-61.63-25.56-49.95,44.23,4.27-67.65-56.94-35.24,64.27-16.26Z" transform="translate(84.93 83.53)"/><path class="cls-1" d="M291.2,552.08l26.59,43.21,49.54-4.17L335.56,630,355.11,677l-46.22-19.17L271.42,691l3.2-50.74-42.7-26.43,48.21-12.19Z" transform="translate(84.93 83.53)"/><path class="cls-2" d="M295.33,576.76l17.72,28.81,33-2.78L324.9,628.72l13,31.29-30.82-12.78-25,22.11,2.14-33.82L255.81,617.9,288,609.77Z" transform="translate(84.93 83.53)"/><path class="cls-1" d="M299.34,601.1l8.87,14.4,16.51-1.39-10.59,13,6.52,15.64-15.41-6.39-12.49,11.06,1.07-16.92-14.23-8.81,16.06-4.06Z" transform="translate(84.93 83.53)"/><path class="cls-1" d="M496.67,887.54,454,816.5,371.35,822l54.39-62.51L395,682.56,471.22,715l63.66-53-7.27,82.54,70.12,44.14L517,807.21Z" transform="translate(84.93 83.53)"/><path d="M493.44,865.64l-34.33-58.28L393,811.63l43.37-51-24.85-63.07,61.12,26.75L523.4,681l-5.59,67.56,56.25,36.34-64.58,15Z" transform="translate(84.93 83.53)"/><path class="cls-1" d="M489.93,841.84l-25.74-43.71-49.62,3.2,32.52-38.27-18.64-47.3,45.85,20.06,38.1-32.44-4.19,50.67,42.18,27.25L502,792.55Z" transform="translate(84.93 83.53)"/><path d="M486.28,817.09l-17.16-29.15L436,790.08l21.68-25.51L445.29,733l30.57,13.37,25.4-21.62-2.79,33.78,28.12,18.17-32.29,7.5Z" transform="translate(84.93 83.53)"/><path class="cls-1" d="M482.74,792.68l-8.59-14.57-16.53,1.06,10.83-12.75-6.21-15.77,15.28,6.69,12.71-10.82-1.4,16.89,14.06,9.09-16.14,3.75Z" transform="translate(84.93 83.53)"/><path class="cls-1" d="M541.6,720.9l44,70.21,82.56-7.1L615,847.56l32.26,76.32L570.39,893l-62.61,54.27,5.66-82.67-71-42.78,80.36-20.16Z" transform="translate(84.93 83.53)"/><path class="cls-2" d="M545.26,742.74l35.45,57.61,66.06-5.56L604.4,846.65l26.07,62.58-61.63-25.56-50,44.23,4.28-67.66L466.22,825l64.27-16.25Z" transform="translate(84.93 83.53)"/><path class="cls-1" d="M549.23,766.47l26.58,43.2,49.55-4.16L593.59,844.4l19.55,46.94-46.23-19.17-37.46,33.17,3.2-50.74L490,828.17,538.15,816Z" transform="translate(84.93 83.53)"/><path class="cls-2" d="M553.36,791.15,571.08,820l33-2.78L582.93,843.1l13,31.29-30.81-12.78-25,22.12,2.14-33.83-28.47-17.62L546,824.15Z" transform="translate(84.93 83.53)"/><path class="cls-1" d="M557.37,815.48l8.86,14.4,16.52-1.38-10.59,13,6.52,15.64-15.41-6.38-12.49,11,1.07-16.91-14.24-8.81L553.68,832Z" transform="translate(84.93 83.53)"/><path class="cls-1" d="M560.86,492.35l12.65,81.89,78.62,26.13-74,37.34-.56,82.85-58.36-58.81-79,25.07,37.9-73.68-48.25-67.37,81.79,13.28Z" transform="translate(84.93 83.53)"/><path class="cls-2" d="M555.58,513.85l9.76,66.93,62.88,21-59.43,30.87L568,700.47l-46.49-47.86L458.1,673.47,488.79,613l-38.35-54.9,65.46,10.5Z" transform="translate(84.93 83.53)"/><path class="cls-1" d="M549.84,537.21l7.32,50.2,47.16,15.78-44.57,23.15-.62,50.84-34.87-35.9-47.53,15.65,23-45.33L471,570.43l49.1,7.87Z" transform="translate(84.93 83.53)"/><path class="cls-2" d="M543.86,561.51,548.75,595l31.43,10.51-29.71,15.44-.41,33.89-23.24-23.93-31.69,10.43,15.34-30.22L491.3,583.65,524,588.9Z" transform="translate(84.93 83.53)"/><path class="cls-1" d="M537.93,585.45l2.44,16.73,15.72,5.26-14.86,7.72-.2,17-11.63-12-15.84,5.22,7.67-15.11-9.59-13.73L528,599.15Z" transform="translate(84.93 83.53)"/><path class="cls-1" d="M588.18,822.77l-21.09-80.13-80.92-17.82L555.86,680l-8.05-82.47L612,650l75.94-33.14-30,77.22,55,62-82.72-4.71Z" transform="translate(84.93 83.53)"/><path d="M591.19,800.84l-16.66-65.55L509.81,720.9,565.7,684l-6.23-67.5,51.22,42.77L671.55,632l-24.24,63.31,43.85,50.61L625,742.23Z" transform="translate(84.93 83.53)"/><path class="cls-1" d="M594.48,777,582,727.84l-48.54-10.79,41.92-27.66-4.67-50.62,38.41,32.07,45.65-20.5-18.19,47.48,32.89,38-49.65-2.73Z" transform="translate(84.93 83.53)"/><path d="M597.89,752.22l-8.33-32.78-32.36-7.19,27.95-18.44L582,660.06l25.61,21.38,30.43-13.66L626,699.43l21.92,25.3-33.09-1.82Z" transform="translate(84.93 83.53)"/><path class="cls-1" d="M601.31,727.79l-4.17-16.38L581,707.81l14-9.22-1.56-16.88,12.8,10.7,15.22-6.84-6.06,15.83,11,12.65-16.55-.91Z" transform="translate(84.93 83.53)"/><path class="cls-1" d="M450.62,645.42l-42.64-71-82.67,5.5,54.39-62.51-30.78-76.93,76.25,32.41,63.66-53-7.26,82.54,70.11,44.14-80.74,18.6Z" transform="translate(84.93 83.53)"/><path d="M447.39,623.52l-34.33-58.28-66.15,4.27,43.36-51-24.85-63.07,61.12,26.75,50.81-43.25-5.59,67.56L528,542.8l-64.58,15Z" transform="translate(84.93 83.53)"/><path class="cls-1" d="M443.88,599.72,418.14,556l-49.62,3.2L401,520.94l-18.64-47.3,45.85,20.06,38.1-32.44-4.19,50.67,42.18,27.25-48.43,11.26Z" transform="translate(84.93 83.53)"/><path d="M440.23,575l-17.16-29.15L390,548l21.68-25.51-12.42-31.54,30.56,13.38,25.4-21.63-2.79,33.78,28.12,18.17-32.29,7.5Z" transform="translate(84.93 83.53)"/><path class="cls-1" d="M436.69,550.56,428.11,536l-16.54,1.07,10.84-12.76-6.22-15.77,15.29,6.69,12.7-10.82-1.4,16.9,14.06,9.08-16.14,3.75Z" transform="translate(84.93 83.53)"/><path class="cls-1" d="M373.21,616.72l-42.65-71.05-82.67,5.5,54.39-62.51L271.5,411.74l76.26,32.41,63.65-53-7.26,82.54,70.12,44.15-80.75,18.6Z" transform="translate(84.93 83.53)"/><path d="M370,594.82l-34.33-58.29-66.16,4.28,43.36-51L288,426.71l61.13,26.74,50.8-43.25-5.58,67.56,56.24,36.34L386,529.1Z" transform="translate(84.93 83.53)"/><path class="cls-1" d="M366.47,571,340.72,527.3l-49.62,3.21,32.52-38.27L305,444.93,350.83,465l38.1-32.44-4.19,50.67,42.19,27.26L378.5,521.73Z" transform="translate(84.93 83.53)"/><path d="M362.81,546.26l-17.16-29.14-33.08,2.13,21.68-25.51L321.83,462.2l30.56,13.38L377.79,454,375,487.73l28.12,18.17-32.28,7.5Z" transform="translate(84.93 83.53)"/><path class="cls-1" d="M359.27,521.85l-8.58-14.57-16.54,1.07L345,495.59l-6.21-15.76,15.28,6.68,12.7-10.81-1.4,16.89,14.07,9.08-16.15,3.75Z" transform="translate(84.93 83.53)"/><path class="cls-1" d="M694.78,521.26l44,70.2,82.56-7.1-53.17,63.55,32.26,76.32-76.87-30.92L661,747.57l5.66-82.66-71-42.78L676,602Z" transform="translate(84.93 83.53)"/><path class="cls-2" d="M698.44,543.09l35.45,57.61L800,595.15,757.59,647l26.06,62.58L722,684l-50,44.23,4.28-67.65L619.4,625.36l64.27-16.26Z" transform="translate(84.93 83.53)"/><path class="cls-1" d="M702.41,566.82,729,610l49.55-4.17-31.77,38.9,19.55,46.93-46.23-19.17-37.46,33.17,3.2-50.74-42.7-26.43,48.2-12.19Z" transform="translate(84.93 83.53)"/><path class="cls-2" d="M706.54,591.5l17.72,28.81,33-2.78-21.18,25.93,13,31.29L718.33,662l-25,22.11,2.14-33.82L667,632.63l32.13-8.12Z" transform="translate(84.93 83.53)"/><path class="cls-1" d="M710.55,615.84l8.86,14.4,16.52-1.39-10.59,13,6.52,15.64-15.41-6.39L704,662.13,705,645.21l-14.24-8.81,16.07-4.06Z" transform="translate(84.93 83.53)"/><path class="cls-1" d="M431.84,308.08l44,70.2,82.56-7.1-53.17,63.55,32.26,76.32-76.87-30.93L398,534.39l5.66-82.66-71-42.78,80.37-20.16Z" transform="translate(84.93 83.53)"/><path class="cls-2" d="M435.5,329.91,471,387.52,537,382l-42.36,51.85,26.06,62.58-61.63-25.56-50,44.23,4.28-67.65-56.94-35.24,64.27-16.26Z" transform="translate(84.93 83.53)"/><path class="cls-1" d="M439.47,353.64l26.58,43.21,49.55-4.17-31.77,38.9,19.55,46.93-46.23-19.17-37.46,33.17,3.2-50.74-42.7-26.43,48.2-12.19Z" transform="translate(84.93 83.53)"/><path class="cls-2" d="M443.6,378.32l17.72,28.81,33-2.78-21.18,25.93,13,31.29-30.81-12.78-25,22.11,2.14-33.82-28.47-17.63,32.13-8.12Z" transform="translate(84.93 83.53)"/><path class="cls-1" d="M447.61,402.66l8.87,14.4L473,415.67l-10.59,13,6.52,15.64-15.41-6.39L441,449,442.09,432l-14.24-8.81,16.07-4.06Z" transform="translate(84.93 83.53)"/><path class="cls-1" d="M608.83,588.3l-42.64-71-82.68,5.5,54.39-62.51-30.78-76.93,76.26,32.41,63.65-53-7.26,82.54,70.12,44.15L629.15,508Z" transform="translate(84.93 83.53)"/><path d="M605.6,566.4l-34.33-58.29-66.16,4.27,43.36-51-24.85-63.08L584.75,425l50.8-43.25L630,449.34l56.24,36.34-64.57,15Z" transform="translate(84.93 83.53)"/><path class="cls-1" d="M602.09,542.59l-25.75-43.71-49.62,3.2,32.52-38.27-18.63-47.3,45.84,20.06,38.1-32.44-4.18,50.67,42.18,27.25-48.43,11.26Z" transform="translate(84.93 83.53)"/><path d="M598.44,517.84,581.27,488.7l-33.08,2.13,21.68-25.51-12.42-31.54L588,447.16l25.4-21.63-2.79,33.78,28.13,18.17L606.46,485Z" transform="translate(84.93 83.53)"/><path class="cls-1" d="M594.89,493.43l-8.58-14.57-16.54,1.07,10.84-12.76L574.4,451.4l15.28,6.69,12.7-10.81L601,464.17l14.06,9.08L598.9,477Z" transform="translate(84.93 83.53)"/><path class="cls-1" d="M405.1,797.58,325.37,775l-56.46,60.64-3.2-82.8-75.12-35,77.75-28.63,10-82.25,51.26,65.1L411,656.28l-46.07,68.86Z" transform="translate(84.93 83.53)"/><path d="M387.75,783.84l-64.94-19-45.27,48.44-3.37-66.88-61.31-28.92,62.86-22.39,7.37-66.31,42.22,53,65.87-12.06L354.42,725Z" transform="translate(84.93 83.53)"/><path class="cls-1" d="M368.89,768.9l-48.71-14.2L286.23,791l-2.52-50.16-46-21.69,47.14-16.79,5.54-49.74,31.66,39.78,49.4-9-27.57,41.38Z" transform="translate(84.93 83.53)"/><path d="M349.27,753.37,316.8,743.9l-22.63,24.22-1.69-33.44-30.65-14.46L293.25,709l3.69-33.16,21.11,26.52,32.93-6L332.6,723.94Z" transform="translate(84.93 83.53)"/><path class="cls-1" d="M330,738l-16.24-4.74-11.32,12.11-.84-16.72-15.33-7.23,15.72-5.6,1.84-16.58,10.56,13.26,16.46-3-9.19,13.79Z" transform="translate(84.93 83.53)"/><path class="cls-1" d="M162.49,859.94l80.15,21,55.28-61.72,4.8,82.72,75.79,33.49-77.19,30.13L292.88,1048l-52.5-64.1-81,17.45,44.73-69.75Z" transform="translate(84.93 83.53)"/><path class="cls-2" d="M180.1,873.34,245.39,891l44.33-49.3,4.66,66.8,61.86,27.73-62.41,23.6-6.09,66.45-43.23-52.22-65.63,13.34,35.69-55.88Z" transform="translate(84.93 83.53)"/><path class="cls-1" d="M199.25,887.91l49,13.26,33.24-37,3.5,50.1,46.39,20.8-46.8,17.7L280,1002.63l-32.43-39.16-49.21,10,26.76-41.91Z" transform="translate(84.93 83.53)"/><path class="cls-2" d="M219.17,903.06l32.64,8.84L274,887.25l2.34,33.4,30.93,13.86L276,946.32l-3,33.22-21.62-26.11-32.81,6.67,17.84-27.94Z" transform="translate(84.93 83.53)"/><path class="cls-1" d="M238.77,918l16.32,4.42,11.08-12.33,1.16,16.7,15.47,6.93-15.6,5.9-1.52,16.61-10.81-13-16.41,3.33,8.92-14Z" transform="translate(84.93 83.53)"/><path class="cls-1" d="M131.22,976l80.16,21,55.27-61.72,4.81,82.71,75.78,33.5-77.18,30.13L261.62,1164l-52.51-64.1-81,17.45,44.74-69.75Z" transform="translate(84.93 83.53)"/><path class="cls-2" d="M148.84,989.37l65.29,17.68,44.32-49.3,4.67,66.8L325,1052.28l-62.41,23.6-6.09,66.45-43.24-52.22-65.62,13.34,35.69-55.88Z" transform="translate(84.93 83.53)"/><path class="cls-1" d="M168,1003.94l49,13.26,33.24-37,3.5,50.1,46.39,20.8-46.8,17.7-4.57,49.83-32.43-39.16-49.21,10,26.76-41.9Z" transform="translate(84.93 83.53)"/><path class="cls-2" d="M187.91,1019.09l32.64,8.84,22.16-24.65,2.33,33.4L276,1050.54l-31.2,11.8-3.05,33.22-21.61-26.1-32.81,6.67,17.84-27.94Z" transform="translate(84.93 83.53)"/><path class="cls-1" d="M207.5,1034.06l16.33,4.42,11.08-12.32,1.16,16.7,15.47,6.93-15.6,5.9-1.53,16.61-10.81-13-16.4,3.33,8.92-14Z" transform="translate(84.93 83.53)"/><path class="cls-1" d="M247.53,1163.88l-79.74-22.54L111.33,1202l-3.2-82.79-75.12-35,77.76-28.63,10-82.25,51.25,65.11,81.33-15.88-46.08,68.86Z" transform="translate(84.93 83.53)"/><path d="M230.17,1150.14l-64.93-18.94L120,1179.64l-3.37-66.88-61.31-28.93,62.85-22.39,7.38-66.31,42.21,53,65.87-12.06-36.76,55.17Z" transform="translate(84.93 83.53)"/><path class="cls-1" d="M211.31,1135.21,162.61,1121l-34,36.33-2.53-50.16-46-21.7,47.14-16.79,5.53-49.73,31.66,39.78,49.4-9-27.57,41.38Z" transform="translate(84.93 83.53)"/><path d="M191.69,1119.67l-32.47-9.47-22.63,24.22L134.9,1101l-30.65-14.46,31.43-11.2,3.68-33.15,21.11,26.52,32.94-6L175,1090.24Z" transform="translate(84.93 83.53)"/><path class="cls-1" d="M172.39,1104.32l-16.24-4.73-11.31,12.1L144,1095l-15.32-7.24,15.71-5.59,1.84-16.58,10.56,13.26,16.47-3-9.2,13.8Z" transform="translate(84.93 83.53)"/><path class="cls-1" d="M257.53,1039.05l-79.73-22.54-56.46,60.64-3.2-82.79L43,959.4l77.75-28.63,10-82.25,51.26,65.11,81.32-15.88L217.3,966.61Z" transform="translate(84.93 83.53)"/><path d="M240.18,1025.31l-64.94-18.94L130,1054.8l-3.37-66.87L65.29,959l62.86-22.39,7.37-66.31,42.22,53,65.87-12.06-36.77,55.17Z" transform="translate(84.93 83.53)"/><path class="cls-1" d="M221.31,1010.38l-48.7-14.21-34,36.33-2.53-50.16-46-21.7,47.14-16.79,5.53-49.73,31.66,39.78,49.41-9-27.58,41.38Z" transform="translate(84.93 83.53)"/><path d="M201.7,994.84l-32.47-9.47-22.64,24.22-1.68-33.44-30.66-14.46,31.43-11.2,3.69-33.15,21.11,26.52,32.93-6L185,965.41Z" transform="translate(84.93 83.53)"/><path class="cls-1" d="M182.39,979.49l-16.23-4.73-11.32,12.1L154,970.14l-15.33-7.23,15.71-5.59,1.85-16.58L166.78,954l16.47-3-9.19,13.8Z" transform="translate(84.93 83.53)"/><path class="cls-1" d="M5.19,937.06l80.16,21,55.27-61.73,4.8,82.72,75.79,33.5L144,1042.68l-8.43,82.42L83.08,1061l-81,17.44,44.73-69.74Z" transform="translate(84.93 83.53)"/><path class="cls-2" d="M22.81,950.47,88.1,968.15l44.32-49.31,4.66,66.8,61.86,27.74L136.53,1037l-6.09,66.44-43.23-52.21-65.62,13.33,35.68-55.87Z" transform="translate(84.93 83.53)"/><path class="cls-1" d="M42,965l49,13.27,33.25-37,3.49,50.1,46.4,20.8-46.81,17.7-4.57,49.83-32.42-39.16-49.22,10,26.77-41.9Z" transform="translate(84.93 83.53)"/><path class="cls-2" d="M61.87,980.18,94.52,989l22.16-24.65,2.33,33.4,30.93,13.87-31.2,11.8-3,33.22-21.62-26.11-32.81,6.67,17.85-27.94Z" transform="translate(84.93 83.53)"/><path class="cls-1" d="M81.47,995.16l16.32,4.42,11.08-12.33L110,1004l15.46,6.94-15.6,5.9-1.52,16.61-10.81-13.05-16.4,3.33,8.92-14Z" transform="translate(84.93 83.53)"/><path class="cls-1" d="M421.45,1068.65l-79.73-22.54-56.46,60.64-3.2-82.8-75.13-35,77.76-28.63,10-82.25L346,943.22l81.32-15.87-46.08,68.86Z" transform="translate(84.93 83.53)"/><path d="M404.1,1054.91l-64.94-19-45.27,48.44-3.37-66.88L229.21,988.6l62.86-22.39,7.37-66.31,42.22,53,65.87-12.06-36.77,55.17Z" transform="translate(84.93 83.53)"/><path class="cls-1" d="M385.23,1040l-48.7-14.2-33.95,36.32-2.53-50.16-46-21.69,47.14-16.79,5.53-49.74,31.66,39.78,49.4-9-27.57,41.38Z" transform="translate(84.93 83.53)"/><path d="M365.61,1024.44,333.15,1015l-22.64,24.22-1.68-33.44-30.66-14.46,31.43-11.2,3.69-33.16,21.11,26.52,32.93-6L349,995Z" transform="translate(84.93 83.53)"/><path class="cls-1" d="M346.31,1009.09l-16.23-4.74-11.32,12.11-.84-16.72-15.33-7.23,15.71-5.6,1.85-16.58L330.7,983.6l16.47-3L338,994.37Z" transform="translate(84.93 83.53)"/><path class="cls-1" d="M340,916.48l80.15,21,55.28-61.73,4.8,82.72L556.05,992l-77.19,30.13-8.44,82.43-52.5-64.1-81,17.44,44.74-69.74Z" transform="translate(84.93 83.53)"/><path class="cls-2" d="M357.64,929.88l65.29,17.68,44.32-49.3,4.67,66.8,61.86,27.73-62.41,23.6-6.09,66.44-43.23-52.21L356.42,1044l35.69-55.87Z" transform="translate(84.93 83.53)"/><path class="cls-1" d="M376.79,944.44l49,13.27,33.24-37,3.5,50.1,46.39,20.8-46.8,17.7-4.57,49.83L425.09,1020l-49.21,10,26.76-41.9Z" transform="translate(84.93 83.53)"/><path class="cls-2" d="M396.71,959.59l32.64,8.85,22.16-24.66,2.34,33.4,30.93,13.87-31.21,11.8-3,33.22L428.91,1010l-32.81,6.66,17.84-27.93Z" transform="translate(84.93 83.53)"/><path class="cls-1" d="M416.31,974.57,432.63,979l11.08-12.32,1.16,16.7,15.47,6.93-15.6,5.9-1.53,16.61-10.8-13L416,1003.09l8.92-14Z" transform="translate(84.93 83.53)"/><path class="cls-1" d="M197.48,736.79l65.31,51L338,753l-28.31,77.87L366,891.57l-82.81-2.87-40.36,72.37L220,881.43l-81.29-16,68.67-46.36Z" transform="translate(84.93 83.53)"/><path class="cls-2" d="M208.36,756.06l53,42.07,60.21-27.75-22.15,63.2,45.85,49.94-66.66-3L246.7,939.12l-19-65.06-65.54-13.71L217,823.15Z" transform="translate(84.93 83.53)"/><path class="cls-1" d="M220.18,777l39.73,31.55,45.16-20.81-16.61,47.4,34.38,37.45-50-2.26-23.91,44-14.29-48.79-49.16-10.29,41.16-27.9Z" transform="translate(84.93 83.53)"/><path class="cls-2" d="M232.48,798.81l26.48,21L289.07,806,278,837.57l22.92,25L267.59,861l-15.94,29.31-9.52-32.53L209.35,851l27.44-18.6Z" transform="translate(84.93 83.53)"/><path class="cls-1" d="M244.55,820.32l13.24,10.52,15.06-6.94-5.54,15.8,11.46,12.48-16.66-.75-8,14.65-4.76-16.26L233,846.39l13.72-9.3Z" transform="translate(84.93 83.53)"/><path class="cls-1" d="M443.74,958.78l-70.25-43.93L302.33,957.3l20.06-80.39L260,822.35l82.66-5.76,32.62-76.17,31,76.84,82.52,7.48L425.36,878Z" transform="translate(84.93 83.53)"/><path d="M430.92,940.74,373.86,904.4l-57,33.85,15.46-65.15-50.79-44.91,66.61-3.93,25.62-61.61,25.71,62.73,66.61,6.83-50.72,42.7Z" transform="translate(84.93 83.53)"/><path class="cls-1" d="M417,921.12l-42.79-27.25-42.75,25.39L343,870.4l-38.09-33.69,50-2.94,19.21-46.21,19.28,47.05,50,5.12-38,32Z" transform="translate(84.93 83.53)"/><path d="M402.48,900.73,374,882.56l-28.5,16.93,7.73-32.58-25.4-22.46,33.31-2,12.81-30.8,12.85,31.36,33.31,3.41-25.36,21.35Z" transform="translate(84.93 83.53)"/><path class="cls-1" d="M388.24,880.59,374,871.51,359.73,880l3.86-16.29L350.9,852.46l16.65-1,6.4-15.4,6.43,15.68L397,853.46l-12.68,10.67Z" transform="translate(84.93 83.53)"/><path class="cls-1" d="M222,923.82l-79.73-22.55L85.85,961.92l-3.2-82.8-75.13-35,77.76-28.63,10-82.25,51.25,65.1,81.33-15.88-46.08,68.87Z" transform="translate(84.93 83.53)"/><path d="M204.68,910.08l-64.93-19L94.48,939.57l-3.37-66.88L29.8,843.77l62.85-22.39L100,755.06l42.21,53,65.87-12.05-36.76,55.17Z" transform="translate(84.93 83.53)"/><path class="cls-1" d="M185.82,895.14l-48.7-14.21-33.95,36.33-2.53-50.16-46-21.69,47.14-16.79,5.53-49.74L139,818.66l49.4-9L160.82,851Z" transform="translate(84.93 83.53)"/><path d="M166.2,879.61l-32.47-9.47L111.1,894.35l-1.68-33.43L78.76,846.45l31.43-11.19,3.69-33.16L135,828.62l32.94-6-18.38,27.59Z" transform="translate(84.93 83.53)"/><path class="cls-1" d="M146.9,864.26l-16.23-4.74-11.32,12.11-.84-16.72-15.33-7.23,15.71-5.6,1.85-16.58,10.55,13.26,16.47-3-9.19,13.79Z" transform="translate(84.93 83.53)"/><path class="cls-1" d="M146,955.94,66.24,933.4,9.78,994l-3.2-82.8-75.12-35L9.22,847.66l10-82.25,51.25,65.1,81.33-15.87L105.75,883.5Z" transform="translate(84.93 83.53)"/><path d="M128.62,942.2,63.68,923.26,18.42,971.69l-3.37-66.88-61.31-28.92L16.59,853.5,24,787.19l42.21,53,65.87-12.06L95.29,883.34Z" transform="translate(84.93 83.53)"/><path class="cls-1" d="M109.76,927.26l-48.7-14.2L27.11,949.38l-2.53-50.16-46-21.69,47.14-16.79L31.27,811l31.66,39.79,49.4-9L84.76,883.12Z" transform="translate(84.93 83.53)"/><path d="M90.14,911.73l-32.47-9.47L35,926.48,33.35,893,2.7,878.58l31.42-11.2,3.69-33.16,21.11,26.53,32.94-6L73.47,882.3Z" transform="translate(84.93 83.53)"/><path class="cls-1" d="M70.84,896.38,54.6,891.64,43.29,903.75,42.44,887,27.12,879.8l15.71-5.6,1.84-16.57,10.56,13.26,16.46-3L62.5,881.66Z" transform="translate(84.93 83.53)"/><path class="cls-1" d="M314.85,666.1l80.15,21,55.28-61.72,4.8,82.71,75.79,33.5-77.19,30.13-8.44,82.43L392.74,790l-81,17.45,44.74-69.75Z" transform="translate(84.93 83.53)"/><path class="cls-2" d="M332.46,679.5l65.29,17.68,44.33-49.3,4.66,66.8,61.86,27.73L446.19,766l-6.09,66.45-43.23-52.22-65.63,13.34,35.69-55.88Z" transform="translate(84.93 83.53)"/><path class="cls-1" d="M351.61,694.07l49,13.26,33.24-37,3.5,50.1,46.39,20.8L436.91,759l-4.57,49.83-32.43-39.16-49.21,10,26.76-41.9Z" transform="translate(84.93 83.53)"/><path class="cls-2" d="M371.53,709.22l32.64,8.84,22.16-24.65,2.34,33.4,30.93,13.86-31.21,11.8-3,33.23-21.62-26.11-32.81,6.67,17.84-27.94Z" transform="translate(84.93 83.53)"/><path class="cls-1" d="M391.13,724.19l16.32,4.43,11.08-12.33,1.16,16.7,15.47,6.93-15.6,5.9L418,762.43l-10.81-13-16.41,3.33,8.92-14Z" transform="translate(84.93 83.53)"/><path class="cls-1" d="M-22.74,690.93l80.15,21,55.28-61.72,4.8,82.72,75.79,33.49-77.19,30.13L107.65,879l-52.5-64.1-81,17.45,44.73-69.74Z" transform="translate(84.93 83.53)"/><path class="cls-2" d="M-5.13,704.33,60.16,722l44.33-49.3,4.66,66.8L171,767.24l-62.41,23.6-6.09,66.45L59.28,805.07-6.35,818.41l35.69-55.87Z" transform="translate(84.93 83.53)"/><path class="cls-1" d="M14,718.9l49,13.26,33.24-37,3.5,50.1,46.39,20.8-46.8,17.7-4.57,49.84L62.32,794.46l-49.21,10,26.76-41.91Z" transform="translate(84.93 83.53)"/><path class="cls-2" d="M33.94,734.05l32.64,8.84,22.16-24.65,2.34,33.4L122,765.5,90.8,777.31l-3,33.22L66.14,784.42l-32.81,6.67,17.84-27.94Z" transform="translate(84.93 83.53)"/><path class="cls-1" d="M53.54,749l16.32,4.42,11.08-12.33,1.17,16.7,15.46,6.93L82,770.65l-1.52,16.62L69.64,774.21l-16.41,3.34,8.92-14Z" transform="translate(84.93 83.53)"/><path class="cls-1" d="M298.15,773.82l-79.73-22.54L162,811.92l-3.2-82.8-75.12-35,77.75-28.63,10-82.25,51.26,65.1L304,632.52l-46.08,68.86Z" transform="translate(84.93 83.53)"/><path d="M280.8,760.08l-64.94-19-45.27,48.44-3.37-66.88-61.31-28.92,62.86-22.39,7.37-66.31,42.22,53,65.87-12.06-36.77,55.17Z" transform="translate(84.93 83.53)"/><path class="cls-1" d="M261.93,745.14l-48.7-14.21-33.95,36.33-2.53-50.16-46-21.69,47.14-16.79,5.53-49.74,31.67,39.78,49.4-9L236.93,701Z" transform="translate(84.93 83.53)"/><path d="M242.32,729.61l-32.47-9.47-22.64,24.22-1.68-33.44-30.66-14.47,31.43-11.19L190,652.1l21.11,26.52,32.93-6-18.38,27.59Z" transform="translate(84.93 83.53)"/><path class="cls-1" d="M223,714.26l-16.23-4.74-11.32,12.11-.84-16.72-15.33-7.23,15.72-5.6,1.84-16.58,10.55,13.26,16.47-3-9.19,13.79Z" transform="translate(84.93 83.53)"/><path class="cls-1" d="M534.59,721.09l-52.93,63.75L514.21,861l-77-30.65-62.41,54.5,5.35-82.68L309,759.69l80.3-20.46,18.46-80.77,44.26,70Z" transform="translate(84.93 83.53)"/><path d="M515,731.39l-43.64,51.67,25.93,61-62.51-24-51.29,44.32,5-66.54-57.63-33.62,65.61-17.09L412.15,682l35.53,56Z" transform="translate(84.93 83.53)"/><path class="cls-1" d="M493.69,742.57,461,781.33l19.45,45.77-46.88-18-38.47,33.24,3.76-49.9L355.6,767.19l49.2-12.82,11.76-48.82,26.65,42Z" transform="translate(84.93 83.53)"/><path d="M471.54,754.21l-21.82,25.84,13,30.51-31.25-12L405.78,820.7l2.51-33.27-28.81-16.81,32.8-8.54,7.84-32.55,17.76,28Z" transform="translate(84.93 83.53)"/><path class="cls-1" d="M449.68,765.63l-10.91,12.92,6.48,15.25-15.62-6L416.8,798.88l1.26-16.64-14.41-8.4,16.4-4.28L424,753.29l8.88,14Z" transform="translate(84.93 83.53)"/><path class="cls-1" d="M493.24,968.16l51.68-64.76-34-75.56L588.47,857l61.34-55.7-3.75,82.77L718,925.19l-79.88,22-16.89,81.12L575.6,959.15Z" transform="translate(84.93 83.53)"/><path class="cls-2" d="M512.63,957.49,555.26,905l-27.1-60.5,63,22.81L641.55,822l-3.73,66.62,58.27,32.5-65.26,18.36-14.42,65.39-36.6-55.27Z" transform="translate(84.93 83.53)"/><path class="cls-1" d="M533.71,945.89l32-39.39-20.32-45.38,47.21,17.12,37.83-34-2.8,50,43.7,24.38-48.94,13.77-10.81,49L584.09,940Z" transform="translate(84.93 83.53)"/><path class="cls-2" d="M555.63,933.82,577,907.57,563.4,877.31l31.48,11.41,25.21-22.65-1.86,33.31,29.13,16.25-32.63,9.18-7.21,32.7-18.3-27.64Z" transform="translate(84.93 83.53)"/><path class="cls-1" d="M577.27,922l10.66-13.13-6.78-15.12,15.74,5.7L609.5,888.1l-.93,16.66,14.56,8.12-16.31,4.59-3.61,16.35L594.06,920Z" transform="translate(84.93 83.53)"/><path class="cls-1" d="M586.63,1043.78,638.31,979l-34-75.55,77.56,29.15,61.34-55.7-3.75,82.77,71.93,41.13-79.88,22-16.89,81.12L669,1034.77Z" transform="translate(84.93 83.53)"/><path class="cls-2" d="M606,1033.1l42.63-52.51-27.1-60.51,63,22.82,50.43-45.3-3.73,66.62,58.27,32.5-65.26,18.36-14.42,65.39-36.6-55.28Z" transform="translate(84.93 83.53)"/><path class="cls-1" d="M627.1,1021.51l32-39.39-20.32-45.38L686,953.85l37.82-34-2.8,50,43.7,24.38L715.75,1008l-10.81,49-27.46-41.46Z" transform="translate(84.93 83.53)"/><path class="cls-2" d="M649,1009.44l21.32-26.25-13.55-30.26,31.48,11.41,25.21-22.65L711.62,975l29.13,16.25-32.63,9.18-7.2,32.69-18.31-27.63Z" transform="translate(84.93 83.53)"/><path class="cls-1" d="M670.66,997.6l10.66-13.13-6.78-15.13,15.74,5.71,12.61-11.33L702,980.38l14.56,8.12-16.31,4.59-3.61,16.35-9.15-13.82Z" transform="translate(84.93 83.53)"/><path class="cls-1" d="M805.56,1013.64l-52.94,63.75,32.55,76.2-77-30.64-62.42,54.5,5.36-82.69L580,1052.25l80.29-20.46L678.76,951l44.27,70Z" transform="translate(84.93 83.53)"/><path d="M786,1023.94l-43.64,51.68,25.92,61-62.5-24-51.3,44.32,5-66.53-57.63-33.63,65.6-17.09,15.68-65.1,35.53,56Z" transform="translate(84.93 83.53)"/><path class="cls-1" d="M764.66,1035.13l-32.73,38.76,19.44,45.76-46.88-18L666,1134.86l3.76-49.9-43.22-25.22,49.2-12.81,11.76-48.83,26.65,42Z" transform="translate(84.93 83.53)"/><path d="M742.51,1046.76l-21.83,25.84,13,30.51-31.25-12-25.65,22.16,2.5-33.26-28.81-16.82,32.8-8.54,7.84-32.55,17.77,28Z" transform="translate(84.93 83.53)"/><path class="cls-1" d="M720.65,1058.18l-10.92,12.92,6.49,15.26-15.63-6-12.82,11.08L689,1074.8l-14.41-8.41,16.4-4.27,3.92-16.28,8.89,14Z" transform="translate(84.93 83.53)"/><path class="cls-1" d="M695.5,953.89l-52.93,63.75,32.54,76.2-77-30.65-62.41,54.5,5.35-82.68L470,992.49,550.25,972l18.45-80.77,44.27,70Z" transform="translate(84.93 83.53)"/><path d="M675.9,964.18l-43.64,51.68,25.92,61-62.5-24-51.29,44.32,5-66.54L491.77,997l65.6-17.09,15.69-65.1,35.52,56Z" transform="translate(84.93 83.53)"/><path class="cls-1" d="M654.6,975.37l-32.73,38.76,19.44,45.77-46.87-18L556,1075.11l3.77-49.9L516.51,1000l49.2-12.82,11.76-48.82,26.64,42Z" transform="translate(84.93 83.53)"/><path d="M632.45,987l-21.82,25.84,13,30.51-31.25-12-25.65,22.16,2.51-33.27-28.81-16.81,32.8-8.54L581,962.33l17.76,28Z" transform="translate(84.93 83.53)"/><path class="cls-1" d="M610.59,998.43l-10.91,12.92,6.48,15.25-15.62-6-12.83,11.07L579,1015l-14.4-8.41,16.4-4.27,3.92-16.27,8.88,14Z" transform="translate(84.93 83.53)"/><path class="cls-1" d="M500,1143.21l51.68-64.76-34-75.55L595.2,1032l61.34-55.69-3.75,82.77,71.93,41.13-79.88,22L628,1203.38l-45.62-69.17Z" transform="translate(84.93 83.53)"/><path class="cls-2" d="M519.36,1132.54,562,1080l-27.1-60.51,63,22.82L648.28,997l-3.73,66.62,58.27,32.5-65.26,18.35-14.42,65.4-36.6-55.28Z" transform="translate(84.93 83.53)"/><path class="cls-1" d="M540.44,1120.94l32-39.38-20.32-45.38,47.21,17.11,37.83-34-2.8,50,43.7,24.38-48.94,13.76-10.81,49L590.82,1115Z" transform="translate(84.93 83.53)"/><path class="cls-2" d="M562.36,1108.88l21.32-26.26-13.55-30.25,31.48,11.41,25.21-22.65L625,1074.44l29.13,16.25-32.63,9.18-7.21,32.69L596,1104.93Z" transform="translate(84.93 83.53)"/><path class="cls-1" d="M584,1097l10.66-13.13-6.78-15.13,15.74,5.71,12.61-11.33-.93,16.66,14.56,8.12-16.31,4.59-3.61,16.35-9.15-13.82Z" transform="translate(84.93 83.53)"/><path class="cls-1" d="M789,816l-52.93,63.75L768.63,956l-77-30.64-62.41,54.5,5.35-82.69-71.12-42.51,80.3-20.46,18.46-80.78,44.27,70Z" transform="translate(84.93 83.53)"/><path d="M769.42,826.34,725.77,878l25.93,61-62.5-24-51.3,44.32,5-66.53-57.62-33.63,65.6-17.08L666.57,777l35.53,56Z" transform="translate(84.93 83.53)"/><path class="cls-1" d="M748.12,837.53l-32.74,38.76,19.45,45.76L688,904l-38.47,33.23,3.76-49.89L610,862.14l49.2-12.81L671,800.5l26.65,42Z" transform="translate(84.93 83.53)"/><path d="M726,849.16,704.14,875l13,30.51-31.25-12L660.2,915.66l2.51-33.27L633.9,865.57,666.7,857l7.84-32.55,17.76,28Z" transform="translate(84.93 83.53)"/><path class="cls-1" d="M704.1,860.58l-10.91,12.93,6.48,15.25-15.62-6-12.83,11.08,1.26-16.63-14.41-8.41,16.4-4.27,3.92-16.28,8.88,14Z" transform="translate(84.93 83.53)"/><path class="cls-1" d="M616.89,828.78,668.58,764l-34-75.55,77.56,29.14,61.34-55.69-3.75,82.77,71.93,41.13-79.88,22L744.88,889l-45.62-69.17Z" transform="translate(84.93 83.53)"/><path class="cls-2" d="M636.29,818.11l42.63-52.51-27.1-60.51,63,22.82,50.42-45.3-3.72,66.62,58.27,32.5-65.26,18.35-14.42,65.4-36.6-55.28Z" transform="translate(84.93 83.53)"/><path class="cls-1" d="M657.37,806.51l32-39.38L669,721.75l47.21,17.11,37.83-34-2.8,50L795,779.23,746,793l-10.81,49-27.46-41.46Z" transform="translate(84.93 83.53)"/><path class="cls-2" d="M679.29,794.45l21.32-26.26-13.55-30.25,31.48,11.41,25.21-22.65L741.89,760,771,776.26l-32.63,9.18-7.21,32.69-18.3-27.63Z" transform="translate(84.93 83.53)"/><path class="cls-1" d="M700.93,782.61l10.66-13.13-6.78-15.13,15.74,5.71,12.61-11.33-.94,16.66,14.57,8.12-16.31,4.59-3.61,16.35-9.15-13.82Z" transform="translate(84.93 83.53)"/><path class="cls-1" d="M394.84,886.24l73.09-39-1.35-82.85,59.71,57.45,78.37-26.88-36.19,74.53,49.79,66.24-82.07-11.39-47.6,67.82-14.54-81.57Z" transform="translate(84.93 83.53)"/><path class="cls-2" d="M416.88,884.11l59.93-31.36-1-66.29,48.79,45.86,64.24-21.66-29.77,59.71,40.65,52.9-67.19-9-39.11,54.36L481.7,903.42Z" transform="translate(84.93 83.53)"/><path class="cls-1" d="M440.82,881.8l44.95-23.53-.71-49.71L521.65,843l48.18-16.24L547.5,871.49,578,911.17l-50.4-6.72-29.33,40.77-8.82-48.94Z" transform="translate(84.93 83.53)"/><path class="cls-2" d="M465.73,879.39l30-15.68-.48-33.15,24.4,22.94,32.11-10.83-14.88,29.85L557.17,899l-33.59-4.48L504,921.67l-5.87-32.62Z" transform="translate(84.93 83.53)"/><path class="cls-1" d="M490.29,877.07l15-7.84L505,852.66l12.2,11.47,16.06-5.42-7.45,14.93L536,886.86l-16.8-2.24-9.78,13.59-2.94-16.31Z" transform="translate(84.93 83.53)"/><path class="cls-1" d="M697.62,751.13,629,797.54l9.95,82.26-65.35-50.94-75.16,34.89,28.25-77.9-56.4-60.7,82.81,2.8,40.3-72.4,22.93,79.62Z" transform="translate(84.93 83.53)"/><path d="M675.92,755.53,619.57,793l7.84,65.83-53.29-40.55-61.64,28.22L535.89,784,490,735.59l67.76,1.93L591,679.39l18.47,63.67Z" transform="translate(84.93 83.53)"/><path class="cls-1" d="M652.34,760.32l-42.26,28.07L616,837.76l-40-30.4-46.23,21.16,17.56-46.86-34.45-36.3,50.82,1.45,24.94-43.59L602.48,751Z" transform="translate(84.93 83.53)"/><path d="M627.82,765.3,599.65,784l3.92,32.92-26.65-20.27L546.1,810.77l11.7-31.24-23-24.2,33.88,1,16.63-29.06,9.23,31.84Z" transform="translate(84.93 83.53)"/><path class="cls-1" d="M603.64,770.16l-14.09,9.36,2,16.45-13.32-10.13-15.41,7,5.85-15.62-11.48-12.1,16.94.49,8.31-14.54L587,767Z" transform="translate(84.93 83.53)"/><path class="cls-1" d="M575.77,939.61l-52.93,63.75,32.54,76.2-77-30.64L416,1103.42l5.35-82.69-71.12-42.51,80.3-20.46L449,877l44.27,70Z" transform="translate(84.93 83.53)"/><path d="M556.17,949.91l-43.64,51.68,25.93,61-62.51-24-51.29,44.32,5-66.53L372,982.73l65.6-17.08,15.69-65.11,35.52,56Z" transform="translate(84.93 83.53)"/><path class="cls-1" d="M534.87,961.1l-32.73,38.76,19.44,45.76-46.87-18-38.48,33.23,3.77-49.89-43.22-25.23L446,972.9l11.76-48.83,26.64,42Z" transform="translate(84.93 83.53)"/><path d="M512.72,972.73,490.9,998.57l13,30.51-31.25-12L447,1039.23l2.51-33.27-28.81-16.82,32.8-8.54,7.84-32.55,17.76,28Z" transform="translate(84.93 83.53)"/><path class="cls-1" d="M490.86,984.15,480,997.08l6.48,15.25-15.62-6L458,1017.4l1.26-16.63-14.41-8.41,16.4-4.27,3.92-16.28,8.88,14Z" transform="translate(84.93 83.53)"/><path class="cls-1" d="M574.3,1022.17l-52.93,63.75,32.54,76.2-77-30.65L414.52,1186l5.35-82.68-71.12-42.52L429,1040.31l18.46-80.77,44.27,70Z" transform="translate(84.93 83.53)"/><path d="M554.7,1032.46l-43.64,51.68,25.92,61-62.5-24-51.3,44.32,5-66.54-57.63-33.62,65.6-17.09,15.68-65.1,35.53,56Z" transform="translate(84.93 83.53)"/><path class="cls-1" d="M533.4,1043.65l-32.73,38.76,19.44,45.77-46.87-18-38.48,33.24,3.76-49.9-43.22-25.22,49.2-12.82,11.76-48.82,26.65,42Z" transform="translate(84.93 83.53)"/><path d="M511.25,1055.29l-21.82,25.84,13,30.51-31.25-12-25.65,22.16,2.51-33.27-28.82-16.81,32.8-8.54,7.84-32.55,17.77,28Z" transform="translate(84.93 83.53)"/><path class="cls-1" d="M489.39,1066.71l-10.91,12.92,6.48,15.25-15.63-6L456.51,1100l1.25-16.63-14.4-8.41,16.4-4.27,3.92-16.27,8.88,14Z" transform="translate(84.93 83.53)"/><path class="cls-1" d="M377.81,750.29l51.69-64.76-34-75.55L473,639.12l61.35-55.69-3.75,82.77,71.93,41.13-79.88,22L505.8,810.46l-45.62-69.17Z" transform="translate(84.93 83.53)"/><path class="cls-2" d="M397.2,739.62l42.64-52.51-27.1-60.51,62.95,22.82,50.43-45.3-3.73,66.61,58.27,32.51L515.4,721.59,501,787l-36.61-55.28Z" transform="translate(84.93 83.53)"/><path class="cls-1" d="M418.28,728l32-39.38-20.33-45.38,47.22,17.11,37.82-34-2.79,50,43.7,24.38L506.93,714.5l-10.81,49-27.45-41.46Z" transform="translate(84.93 83.53)"/><path class="cls-2" d="M440.21,716l21.31-26.26L448,659.45l31.48,11.41,25.21-22.65-1.86,33.31,29.14,16.25L499.31,707l-7.21,32.69L473.8,712Z" transform="translate(84.93 83.53)"/><path class="cls-1" d="M461.84,704.12,472.5,691l-6.78-15.13,15.74,5.71,12.61-11.33-.93,16.66L507.71,695l-16.32,4.59L487.79,716l-9.15-13.82Z" transform="translate(84.93 83.53)"/><path class="cls-1" d="M263.64,1069l51.69-64.76-34-75.55,77.57,29.14,61.34-55.7-3.75,82.78L488.4,1026l-79.88,22-16.89,81.12L346,1060Z" transform="translate(84.93 83.53)"/><path class="cls-2" d="M283,1058.29l42.63-52.52-27.1-60.5,62.95,22.82L412,922.78l-3.72,66.62,58.27,32.51-65.26,18.35-14.42,65.39-36.61-55.27Z" transform="translate(84.93 83.53)"/><path class="cls-1" d="M304.12,1046.69l32-39.39-20.32-45.37L363,979l37.82-34L398,995l43.7,24.38-48.94,13.77-10.82,49-27.45-41.45Z" transform="translate(84.93 83.53)"/><path class="cls-2" d="M326,1034.63l21.32-26.26-13.55-30.25,31.47,11.41,25.22-22.66-1.86,33.31,29.13,16.26-32.63,9.17-7.21,32.7-18.3-27.64Z" transform="translate(84.93 83.53)"/><path class="cls-1" d="M347.68,1022.78l10.65-13.12-6.77-15.13,15.74,5.7,12.6-11.32-.93,16.65,14.57,8.13-16.31,4.59-3.61,16.35-9.15-13.82Z" transform="translate(84.93 83.53)"/><path class="cls-1" d="M469.51,809.22,416.58,873l32.55,76.2-77-30.64L309.73,973l5.35-82.69L244,847.83l80.3-20.46,18.45-80.78,44.27,70Z" transform="translate(84.93 83.53)"/><path d="M449.91,819.52,406.27,871.2l25.93,61-62.51-24L318.4,952.5l5-66.53-57.63-33.63,65.61-17.08,15.68-65.11,35.53,56Z" transform="translate(84.93 83.53)"/><path class="cls-1" d="M428.61,830.71l-32.73,38.76,19.44,45.76-46.87-18L330,930.44l3.76-49.9-43.22-25.22,49.2-12.81,11.76-48.83,26.64,42Z" transform="translate(84.93 83.53)"/><path d="M406.46,842.34l-21.82,25.84,13,30.51-31.25-12L340.7,908.83l2.51-33.26L314.4,858.75l32.8-8.54L355,817.66l17.76,28Z" transform="translate(84.93 83.53)"/><path class="cls-1" d="M384.6,853.76l-10.91,12.92,6.48,15.26-15.62-6L351.72,887,353,870.38,338.57,862,355,857.7l3.92-16.28,8.88,14Z" transform="translate(84.93 83.53)"/><path class="cls-1" d="M109.91,436.15l40.18,72.46L232.9,506l-56.5,60.6,28.11,77.94-75.09-35L64,660.32l10.09-82.25L5.51,531.54l81.34-15.81Z" transform="translate(84.93 83.53)"/><path d="M112.39,458.14l32.3,59.43,66.27-2-45.09,49.5L188.54,629l-60.17-28.83L76.11,641.62,84,574.3,29.05,536,94.1,523.27Z" transform="translate(84.93 83.53)"/><path class="cls-1" d="M115.08,482.05l24.23,44.58,49.7-1.5-33.82,37.13,17,47.91-45.13-21.62L87.87,619.66l5.92-50.49L52.57,540.48l48.79-9.59Z" transform="translate(84.93 83.53)"/><path d="M117.88,506.92,134,536.63l33.13-1-22.54,24.75L156,592.33l-30.08-14.41L99.74,598.66l4-33.67L76.21,545.87l32.52-6.39Z" transform="translate(84.93 83.53)"/><path class="cls-1" d="M120.58,531.43l8.08,14.86,16.56-.5L134,558.17l5.67,16-15.05-7.21L111.51,577.3l2-16.83-13.74-9.56,16.27-3.2Z" transform="translate(84.93 83.53)"/><path class="cls-1" d="M325.1,564.4l-41.57-71.68L200.78,497l55.32-61.69-29.62-77.38,75.76,33.55,64.44-52.08-8.5,82.42L427.63,467l-81,17.38Z" transform="translate(84.93 83.53)"/><path class="cls-2" d="M322.2,542.45l-33.45-58.79-66.22,3.28,44.12-50.37-23.89-63.44,60.71,27.66,51.45-42.49-6.6,67.47L404,463l-64.8,14Z" transform="translate(84.93 83.53)"/><path class="cls-1" d="M319,518.6,294,474.5,244.3,477l33.09-37.77-17.93-47.58L305,412.35l38.59-31.86-4.95,50.6L380.41,459l-48.6,10.53Z" transform="translate(84.93 83.53)"/><path class="cls-2" d="M315.77,493.79,299,464.4,265.93,466,288,440.85l-11.95-31.72L306.4,423l25.73-21.24-3.3,33.73L356.68,454l-32.4,7Z" transform="translate(84.93 83.53)"/><path class="cls-1" d="M312.59,469.33l-8.36-14.7-16.56.82,11-12.59-6-15.86,15.18,6.92,12.86-10.62-1.65,16.86,13.92,9.3L316.84,453Z" transform="translate(84.93 83.53)"/><path class="cls-1" d="M429.47,504.84,387.9,433.17l-82.75,4.25,55.32-61.68-29.62-77.38,75.76,33.55,64.44-52.09-8.5,82.43L532,407.44l-81,17.39Z" transform="translate(84.93 83.53)"/><path class="cls-2" d="M426.57,482.9l-33.45-58.8-66.22,3.28L371,377l-23.89-63.44,60.71,27.67,51.45-42.49-6.6,67.47,55.7,37.18-64.8,14Z" transform="translate(84.93 83.53)"/><path class="cls-1" d="M423.41,459,398.33,415l-49.66,2.46,33.09-37.78-17.93-47.58,45.54,20.75L448,320.93,443,371.53l41.77,27.89L436.18,410Z" transform="translate(84.93 83.53)"/><path class="cls-2" d="M420.14,434.24l-16.73-29.4-33.11,1.64,22.07-25.19-11.95-31.71,30.35,13.83,25.73-21.25-3.3,33.74,27.85,18.59-32.4,7Z" transform="translate(84.93 83.53)"/><path class="cls-1" d="M417,409.78l-8.36-14.7L392,395.9l11-12.59-6-15.86,15.18,6.91,12.86-10.62-1.65,16.87,13.92,9.29-16.2,3.51Z" transform="translate(84.93 83.53)"/><path class="cls-1" d="M480.89,289.91l40.18,72.47,82.81-2.65-56.5,60.6,28.11,77.94-75.09-35L435,514.08l10.09-82.24-68.56-46.53,81.34-15.81Z" transform="translate(84.93 83.53)"/><path d="M483.37,311.91l32.3,59.43,66.27-2-45.09,49.5,22.67,63.89-60.17-28.83-52.26,41.48,7.9-67.33-55-38.25L465.08,377Z" transform="translate(84.93 83.53)"/><path class="cls-1" d="M486.06,335.82l24.23,44.57L560,378.9,526.17,416l17,47.91L498,442.32l-39.19,31.11,5.92-50.5-41.22-28.68,48.79-9.59Z" transform="translate(84.93 83.53)"/><path d="M488.86,360.69,505,390.4l33.13-1L515.6,414.16l11.33,31.94-30.09-14.41-26.13,20.74,4-33.67-27.49-19.12,32.53-6.39Z" transform="translate(84.93 83.53)"/><path class="cls-1" d="M491.56,385.2l8.08,14.86,16.56-.5-11.27,12.38,5.67,16-15.05-7.21-13.06,10.37,2-16.83-13.74-9.56,16.27-3.2Z" transform="translate(84.93 83.53)"/><path class="cls-1" d="M385.25,370.76l40.18,72.47,82.81-2.66-56.5,60.6,28.11,77.95-75.09-35-65.44,50.83,10.09-82.24-68.56-46.53,81.34-15.82Z" transform="translate(84.93 83.53)"/><path d="M387.73,392.76,420,452.19l66.27-2L441.21,499.7l22.67,63.89-60.17-28.84-52.26,41.49,7.9-67.33-55-38.25,65.05-12.78Z" transform="translate(84.93 83.53)"/><path class="cls-1" d="M390.42,416.66l24.23,44.58,49.7-1.5-33.82,37.13,17,47.92L402.4,523.16l-39.19,31.11,5.92-50.49-41.22-28.69,48.79-9.58Z" transform="translate(84.93 83.53)"/><path d="M393.22,441.53l16.15,29.72,33.13-1L420,495l11.33,32L401.2,512.53l-26.13,20.74,4-33.66-27.49-19.13,32.53-6.39Z" transform="translate(84.93 83.53)"/><path class="cls-1" d="M395.92,466.05,404,480.9l16.56-.5-11.27,12.38,5.67,16-15-7.2-13.06,10.37,2-16.84-13.74-9.56,16.27-3.19Z" transform="translate(84.93 83.53)"/><path class="cls-1" d="M490.65,621.7,449.08,550l-82.75,4.26,55.32-61.69L392,415.21l75.76,33.55,64.44-52.08-8.49,82.42,69.44,45.19-81,17.39Z" transform="translate(84.93 83.53)"/><path class="cls-2" d="M487.75,599.75,454.3,541l-66.22,3.28,44.13-50.37-23.9-63.44L469,458.09l51.45-42.49-6.6,67.47,55.7,37.18-64.8,14Z" transform="translate(84.93 83.53)"/><path class="cls-1" d="M484.6,575.9l-25.09-44.1-49.66,2.46,33.09-37.78L425,448.91l45.53,20.74,38.59-31.86-4.95,50.6L546,516.27l-48.6,10.53Z" transform="translate(84.93 83.53)"/><path class="cls-2" d="M481.32,551.09l-16.73-29.4-33.1,1.64,22.06-25.18L441.6,466.43,472,480.26,497.68,459l-3.3,33.73,27.85,18.59-32.4,7Z" transform="translate(84.93 83.53)"/><path class="cls-1" d="M478.14,526.63l-8.36-14.7-16.56.82,11-12.59-6-15.86,15.18,6.92,12.86-10.63-1.65,16.87,13.92,9.3-16.19,3.5Z" transform="translate(84.93 83.53)"/><path class="cls-1" d="M290.78,233.57,331,306l82.82-2.65L357.26,364l28.12,77.94-75.1-35-65.44,50.82,10.09-82.24L186.37,329l81.34-15.81Z" transform="translate(84.93 83.53)"/><path d="M293.25,255.57,325.56,315l66.26-2-45.09,49.51L369.4,426.4l-60.17-28.83L257,439.05l7.9-67.33-55-38.25,65-12.78Z" transform="translate(84.93 83.53)"/><path class="cls-1" d="M295.94,279.48l24.23,44.57,49.7-1.49-33.82,37.13,17,47.91L307.92,386l-39.19,31.11,5.93-50.5-41.23-28.68,48.79-9.59Z" transform="translate(84.93 83.53)"/><path d="M298.74,304.35l16.15,29.71,33.13-1-22.54,24.76,11.33,31.94-30.08-14.42L280.6,396.09l3.95-33.67L257.07,343.3l32.52-6.39Z" transform="translate(84.93 83.53)"/><path class="cls-1" d="M301.44,328.86l8.08,14.86,16.56-.5L314.81,355.6l5.67,16-15-7.21-13.07,10.37,2-16.83-13.74-9.56,16.26-3.2Z" transform="translate(84.93 83.53)"/><path class="cls-1" d="M240.14,398.57l-41.57-71.68-82.75,4.26,55.33-61.68-29.62-77.39,75.76,33.55,64.44-52.08L273.23,256l69.45,45.2-81,17.38Z" transform="translate(84.93 83.53)"/><path class="cls-2" d="M237.24,376.62l-33.45-58.79-66.21,3.28,44.12-50.37L157.8,207.3,218.52,235,270,192.48l-6.59,67.46,55.69,37.18-64.79,14Z" transform="translate(84.93 83.53)"/><path class="cls-1" d="M234.09,352.77,209,308.68l-49.66,2.46,33.09-37.78-17.92-47.58,45.54,20.75,38.58-31.87-4.95,50.6,41.78,27.88-48.6,10.53Z" transform="translate(84.93 83.53)"/><path class="cls-2" d="M230.81,328l-16.72-29.39L181,300.21,203,275,191.09,243.3l30.36,13.83,25.72-21.24-3.3,33.73,27.85,18.59-32.4,7Z" transform="translate(84.93 83.53)"/><path class="cls-1" d="M227.63,303.5l-8.36-14.69-16.55.82,11-12.6-6-15.86L223,268.09l12.86-10.62-1.64,16.86,13.92,9.3-16.2,3.51Z" transform="translate(84.93 83.53)"/><path class="cls-1" d="M213,626.33l-9.82-82.28-77.68-28.82,75.21-34.77,3.41-82.79,56.3,60.79,79.79-22.34-40.41,72.33,45.91,69-81.29-16.08Z" transform="translate(84.93 83.53)"/><path class="cls-2" d="M219.06,605l-7.46-67.23-62.11-23.18,60.45-28.81,3.14-67.71,44.82,49.42L322,448.84,289.21,508.2l36.45,56.18-65.07-12.75Z" transform="translate(84.93 83.53)"/><path class="cls-1" d="M225.6,581.87,220,531.45l-46.59-17.39,45.34-21.6,2.36-50.79,33.61,37.07,48-14-24.56,44.52,27.33,42.13-48.8-9.55Z" transform="translate(84.93 83.53)"/><path class="cls-2" d="M232.4,557.79l-3.73-33.62-31-11.59,30.22-14.4,1.58-33.86L251.83,489l32-9.33-16.37,29.68,18.22,28.09-32.53-6.38Z" transform="translate(84.93 83.53)"/><path class="cls-1" d="M239.16,534.07l-1.86-16.81-15.53-5.79,15.11-7.21.79-16.93,11.2,12.36,16-4.67-8.19,14.84,9.11,14-16.26-3.19Z" transform="translate(84.93 83.53)"/><path class="cls-1" d="M197.1,295.16,215.42,376l80.26,20.59L224.48,439l5.22,82.69L167.38,467l-77,30.52L123,421.41,70.2,357.57l82.51,7.55Z" transform="translate(84.93 83.53)"/><path d="M193.33,317l14.4,66.09,64.19,16.61L214.79,434.6l3.91,67.68L169,457.77,107.21,483l26.41-62.44L91.53,368.47l66,5.92Z" transform="translate(84.93 83.53)"/><path class="cls-1" d="M189.23,340.68,200,390.25l48.14,12.45-42.85,26.2,2.93,50.76L171,446.28,124.64,465.2l19.8-46.83-31.56-39.06,49.53,4.43Z" transform="translate(84.93 83.53)"/><path d="M185,365.34l7.2,33,32.09,8.3-28.57,17.47,2,33.84-24.86-22.25-30.88,12.61,13.2-31.22-21-26,33,3Z" transform="translate(84.93 83.53)"/><path class="cls-1" d="M180.71,389.63l3.6,16.52,16.05,4.15L186.07,419l1,16.92-12.43-11.13-15.44,6.31,6.6-15.61-10.52-13L171.77,404Z" transform="translate(84.93 83.53)"/><path class="cls-1" d="M328.48,477.13l40.17,72.47,82.82-2.66L395,607.55l28.12,77.94-75.1-35L282.54,701.3l10.09-82.24-68.56-46.53,81.34-15.82Z" transform="translate(84.93 83.53)"/><path d="M331,499.13l32.3,59.43,66.27-2-45.09,49.51L407.1,670l-60.17-28.83-52.26,41.48,7.9-67.33-55-38.25,65.05-12.78Z" transform="translate(84.93 83.53)"/><path class="cls-1" d="M333.64,523l24.23,44.57,49.7-1.5-33.82,37.13,17,47.92-45.13-21.62-39.19,31.11,5.93-50.5-41.23-28.69,48.79-9.58Z" transform="translate(84.93 83.53)"/><path d="M336.44,547.9l16.15,29.72,33.13-1-22.54,24.75,11.33,32L344.43,618.9,318.3,639.64,322.25,606l-27.48-19.13,32.52-6.38Z" transform="translate(84.93 83.53)"/><path class="cls-1" d="M339.14,572.42l8.08,14.86,16.56-.5-11.27,12.37,5.67,16-15-7.21-13.07,10.37,2-16.83-13.74-9.57,16.26-3.19Z" transform="translate(84.93 83.53)"/><path class="cls-1" d="M404.86,508.48,445,581l82.82-2.65-56.51,60.6,28.12,77.94-75.1-35-65.44,50.82L369,650.41l-68.56-46.53,81.33-15.82Z" transform="translate(84.93 83.53)"/><path d="M407.34,530.48l32.3,59.43,66.27-2-45.09,49.51,22.66,63.89-60.17-28.83L371.05,714l7.9-67.33-55-38.25,65.06-12.78Z" transform="translate(84.93 83.53)"/><path class="cls-1" d="M410,554.39,434.25,599l49.7-1.5-33.81,37.13,17,47.92L422,660.89,382.81,692l5.93-50.5-41.22-28.69,48.79-9.58Z" transform="translate(84.93 83.53)"/><path d="M412.82,579.25,429,609l33.14-1-22.55,24.75,11.34,31.95-30.09-14.42L394.68,671l3.95-33.66L371.15,618.2l32.53-6.38Z" transform="translate(84.93 83.53)"/><path class="cls-1" d="M415.53,603.77l8.07,14.86,16.57-.5L428.9,630.5l5.66,16-15-7.21-13.07,10.37,2-16.83-13.74-9.57L411,620.05Z" transform="translate(84.93 83.53)"/><path class="cls-1" d="M80.19,592.83,38.62,521.15l-82.75,4.26,55.32-61.68-29.62-77.39L57.33,419.9l64.45-52.09-8.5,82.42,69.45,45.2-81,17.39Z" transform="translate(84.93 83.53)"/><path class="cls-2" d="M77.29,570.89l-33.45-58.8-66.21,3.28L21.75,465l-23.9-63.44,60.72,27.67L110,386.74l-6.59,67.47,55.69,37.17-64.8,14Z" transform="translate(84.93 83.53)"/><path class="cls-1" d="M74.14,547,49.05,502.94-.61,505.4l33.09-37.78L14.56,420,60.1,440.79l38.58-31.87-5,50.6,41.77,27.89L86.91,497.93Z" transform="translate(84.93 83.53)"/><path class="cls-2" d="M70.86,522.22,54.14,492.83,21,494.47l22.06-25.19-12-31.72L61.5,451.39l25.72-21.24-3.3,33.74,27.85,18.58-32.4,7Z" transform="translate(84.93 83.53)"/><path class="cls-1" d="M67.68,497.77l-8.36-14.7-16.55.82,11-12.6-6-15.85L63,462.35l12.86-10.62L74.21,468.6l13.93,9.29-16.2,3.51Z" transform="translate(84.93 83.53)"/><path class="cls-1" d="M335.65,814.92l-41.57-71.67-82.75,4.25,55.32-61.68L237,608.44,312.79,642l64.44-52.09-8.5,82.43,69.45,45.19-81,17.39Z" transform="translate(84.93 83.53)"/><path class="cls-2" d="M332.75,793l-33.45-58.8-66.22,3.28,44.12-50.37-23.89-63.43L314,651.32l51.45-42.49-6.6,67.47,55.7,37.18-64.8,14Z" transform="translate(84.93 83.53)"/><path class="cls-1" d="M329.59,769.12,304.51,725l-49.66,2.46,33.09-37.78L270,642.13l45.54,20.75L354.14,631l-4.95,50.61L391,709.5,342.36,720Z" transform="translate(84.93 83.53)"/><path class="cls-2" d="M326.32,744.32l-16.73-29.4-33.11,1.64,22.07-25.18-12-31.72L317,673.49l25.73-21.25L339.38,686l27.85,18.59-32.4,7Z" transform="translate(84.93 83.53)"/><path class="cls-1" d="M323.14,719.86l-8.36-14.7-16.56.82,11-12.59-6-15.86,15.18,6.91,12.86-10.62-1.65,16.87L343.59,700l-16.2,3.51Z" transform="translate(84.93 83.53)"/><path class="cls-1" d="M168.4,528.79l40.17,72.47,82.82-2.66-56.51,60.6L263,737.15l-75.1-35L122.46,753l10.1-82.24L64,624.19l81.33-15.82Z" transform="translate(84.93 83.53)"/><path d="M170.88,550.79l32.3,59.43,66.27-2-45.09,49.51L247,721.62l-60.17-28.84-52.26,41.49,7.91-67.33-55-38.25,65.06-12.78Z" transform="translate(84.93 83.53)"/><path class="cls-1" d="M173.56,574.69l24.23,44.58,49.7-1.5L213.68,654.9l17,47.92-45.12-21.63-39.2,31.11,5.93-50.49-41.22-28.69,48.79-9.58Z" transform="translate(84.93 83.53)"/><path d="M176.36,599.56l16.15,29.72,33.14-1L203.1,653l11.34,32-30.09-14.42L158.22,691.3l3.95-33.66-27.48-19.13,32.53-6.39Z" transform="translate(84.93 83.53)"/><path class="cls-1" d="M179.07,624.08l8.07,14.85,16.57-.5-11.27,12.38,5.66,16-15-7.2L170,670l2-16.84-13.74-9.56,16.26-3.19Z" transform="translate(84.93 83.53)"/><path class="cls-1" d="M379.2,326.63l78.91,25.27,58.51-58.67.35,82.86,73.88,37.52-78.69,25.94L499.3,521.4l-49-66.82-81.83,13.07,48.42-67.24Z" transform="translate(84.93 83.53)"/><path d="M396.07,341l64.25,21.16,46.9-46.85,1.07,67,60.28,31L505,433.46l-9.66,66L455,445l-66.25,9.79,38.64-53.88Z" transform="translate(84.93 83.53)"/><path class="cls-1" d="M414.41,356.53l48.18,15.88,35.18-35.14.8,50.21,45.21,23.27-47.69,15.16-7.23,49.51-30.28-40.84-49.68,7.34,29-40.41Z" transform="translate(84.93 83.53)"/><path d="M433.48,372.73l32.12,10.58,23.46-23.42.53,33.48,30.14,15.5L487.94,419l-4.83,33-20.18-27.23-33.12,4.89,19.32-26.93Z" transform="translate(84.93 83.53)"/><path class="cls-1" d="M452.24,388.74,468.31,394,480,382.32l.27,16.74,15.07,7.75-15.9,5.05-2.41,16.51L467,414.75l-16.56,2.45,9.66-13.47Z" transform="translate(84.93 83.53)"/><path class="cls-1" d="M623.81,272.65l-79.38-23.74L487.06,308.7l-1.95-82.84-74.59-36.08,78.17-27.45L500,80.24l50.27,65.86,81.55-14.65-47.1,68.16Z" transform="translate(84.93 83.53)"/><path class="cls-2" d="M606.67,258.65,542,238.73l-46,47.75-2.36-66.92L432.8,189.72,496,168.28l8.37-66.2,41.42,53.67,66-11.07-37.59,54.61Z" transform="translate(84.93 83.53)"/><path class="cls-1" d="M588,243.43l-48.48-14.94-34.49,35.82-1.78-50.19-45.65-22.38L505,175.65,511.29,126l31.07,40.25L591.89,158l-28.19,41Z" transform="translate(84.93 83.53)"/><path class="cls-2" d="M568.65,227.6l-32.32-9.95-23,23.87-1.18-33.46-30.44-14.92,31.59-10.72,4.19-33.1,20.71,26.84,33-5.54-18.8,27.31Z" transform="translate(84.93 83.53)"/><path class="cls-1" d="M549.58,212l-16.16-5-11.5,11.94-.59-16.73-15.22-7.46,15.8-5.36L524,172.82l10.35,13.42,16.51-2.77-9.4,13.65Z" transform="translate(84.93 83.53)"/><path class="cls-1" d="M659.05,157.76,579.66,134,522.3,193.81l-2-82.83L445.75,74.9l78.17-27.46,11.27-82.09,50.27,65.87L667,16.56,619.91,84.73Z" transform="translate(84.93 83.53)"/><path class="cls-2" d="M641.9,143.76l-64.64-19.91-46,47.75-2.37-66.92L468,74.83l63.18-21.44,8.37-66.19L581,40.87l66-11.08L609.45,84.41Z" transform="translate(84.93 83.53)"/><path class="cls-1" d="M623.26,128.54l-48.48-14.93-34.49,35.81-1.78-50.19L492.86,76.85l47.39-16.08,6.28-49.65,31.06,40.25,49.53-8.3L598.93,84Z" transform="translate(84.93 83.53)"/><path class="cls-2" d="M603.88,112.72l-32.32-10-23,23.88-1.18-33.46L517,78.26l31.59-10.73,4.18-33.09,20.71,26.83,33-5.53L587.66,83Z" transform="translate(84.93 83.53)"/><path class="cls-1" d="M584.81,97.08l-16.16-5L557.15,104l-.59-16.73-15.22-7.46,15.8-5.37,2.09-16.54,10.35,13.41,16.51-2.76L576.7,82.24Z" transform="translate(84.93 83.53)"/><path class="cls-1" d="M549.27-34,628.18-8.77l58.51-58.67.36,82.86,73.87,37.52L682.23,78.88l-12.85,81.85-49-66.82L538.57,107,587,39.74Z" transform="translate(84.93 83.53)"/><path d="M566.14-19.71,630.39,1.45,677.3-45.4l1.07,67,60.28,31L675.06,72.79l-9.65,66L625,84.35,558.8,94.13l38.63-53.87Z" transform="translate(84.93 83.53)"/><path class="cls-1" d="M584.48-4.14l48.19,15.88L667.85-23.4l.8,50.21,45.21,23.27L666.17,65.24l-7.24,49.51L628.65,73.91,579,81.25l29-40.41Z" transform="translate(84.93 83.53)"/><path d="M603.56,12.06l32.12,10.58L659.13-.78l.54,33.48,30.14,15.5L658,58.31l-4.82,33L633,64.09,599.88,69,619.2,42.05Z" transform="translate(84.93 83.53)"/><path class="cls-1" d="M622.32,28.07l16.06,5.29,11.73-11.71.26,16.73,15.07,7.76-15.89,5L647.13,67.7,637,54.08l-16.56,2.45,9.66-13.47Z" transform="translate(84.93 83.53)"/><path class="cls-1" d="M535,90.37l78.91,25.27L672.4,57l.36,82.86,73.87,37.52-78.69,25.94-12.85,81.86-49-66.83-81.82,13.07,48.42-67.24Z" transform="translate(84.93 83.53)"/><path d="M551.86,104.7l64.24,21.17L663,79l1.07,67,60.28,31L660.77,197.2l-9.65,66-40.37-54.46-66.24,9.79,38.63-53.88Z" transform="translate(84.93 83.53)"/><path class="cls-1" d="M570.19,120.28l48.19,15.87L653.56,101l.8,50.22,45.21,23.26-47.69,15.16-7.24,49.52-30.27-40.85-49.69,7.34,29-40.41Z" transform="translate(84.93 83.53)"/><path d="M589.27,136.47l32.12,10.59,23.45-23.43.54,33.48,30.14,15.51-31.8,10.1-4.82,33L618.71,188.5l-33.12,4.9,19.32-26.94Z" transform="translate(84.93 83.53)"/><path class="cls-1" d="M608,152.48l16.06,5.29,11.73-11.71.27,16.74,15.06,7.75-15.89,5.06-2.41,16.5-10.1-13.61-16.56,2.44,9.66-13.47Z" transform="translate(84.93 83.53)"/><path class="cls-1" d="M783.67,201l-79.39-23.73L646.92,237l-2-82.84-74.59-36.08,78.18-27.46L659.81,8.56l50.27,65.87,81.56-14.65-47.11,68.16Z" transform="translate(84.93 83.53)"/><path class="cls-2" d="M766.52,187l-64.64-19.91-46,47.75-2.37-66.92-60.87-29.84L655.84,96.6l8.37-66.19,41.41,53.67,66-11.07-37.58,54.61Z" transform="translate(84.93 83.53)"/><path class="cls-1" d="M747.89,171.76,699.4,156.82l-34.49,35.81-1.77-50.19-45.66-22.38L664.87,104l6.28-49.65,31.06,40.26,49.53-8.31-28.19,41Z" transform="translate(84.93 83.53)"/><path class="cls-2" d="M728.5,155.93l-32.32-10-23,23.88L672,136.39l-30.43-14.92,31.59-10.72,4.18-33.1,20.71,26.83,33-5.53-18.79,27.31Z" transform="translate(84.93 83.53)"/><path class="cls-1" d="M709.43,140.29l-16.16-5-11.5,11.94-.59-16.73L666,123.06l15.8-5.36,2.09-16.55,10.36,13.42,16.51-2.77-9.4,13.65Z" transform="translate(84.93 83.53)"/><path class="cls-1" d="M372.18,55.16l78.91,25.27L509.6,21.76l.35,82.86,73.88,37.52-78.69,25.94-12.86,81.85-49-66.82-81.83,13.07,48.42-67.24Z" transform="translate(84.93 83.53)"/><path d="M389.05,69.49,453.3,90.65,500.2,43.8l1.07,67,60.28,31L498,162l-9.65,66L448,173.55l-66.25,9.78,38.64-53.87Z" transform="translate(84.93 83.53)"/><path class="cls-1" d="M407.39,85.06l48.18,15.88L490.75,65.8l.8,50.21,45.21,23.26-47.69,15.17L481.84,204l-30.28-40.84-49.68,7.34,29-40.41Z" transform="translate(84.93 83.53)"/><path d="M426.46,101.26l32.12,10.58L482,88.42l.53,33.47,30.14,15.51-31.79,10.11-4.83,33-20.18-27.23-33.12,4.89,19.32-26.93Z" transform="translate(84.93 83.53)"/><path class="cls-1" d="M445.22,117.27l16.07,5.29L473,110.85l.27,16.73,15.07,7.76-15.9,5L470,156.9,460,143.28l-16.56,2.45,9.66-13.47Z" transform="translate(84.93 83.53)"/><path class="cls-1" d="M448.32,210l-79.38-23.73L311.57,246.1l-1.95-82.84L235,127.18,313.2,99.72l11.27-82.09L374.74,83.5l81.55-14.66L409.19,137Z" transform="translate(84.93 83.53)"/><path class="cls-2" d="M431.18,196l-64.65-19.91-46,47.75L318.18,157l-60.87-29.84,63.18-21.45,8.37-66.19,41.42,53.67,66-11.07-37.59,54.61Z" transform="translate(84.93 83.53)"/><path class="cls-1" d="M412.54,180.83l-48.48-14.94-34.5,35.81-1.77-50.19-45.65-22.38,47.39-16.08L335.8,63.4l31.06,40.25,49.54-8.3-28.19,41Z" transform="translate(84.93 83.53)"/><path class="cls-2" d="M393.16,165l-32.33-10-23,23.88-1.18-33.46-30.44-14.92,31.59-10.73L342,86.72l20.71,26.83,33-5.53-18.8,27.3Z" transform="translate(84.93 83.53)"/><path class="cls-1" d="M374.09,149.36l-16.17-5-11.49,11.94-.59-16.73-15.22-7.46,15.79-5.36,2.1-16.55,10.35,13.41,16.51-2.76L366,134.52Z" transform="translate(84.93 83.53)"/><path class="cls-1" d="M584.61,394.53l-63.52-53.21-76.34,32.22,31-76.85L421.49,234l82.66,5.71L547,168.81l20.12,80.38L647.79,268l-70.23,44Z" transform="translate(84.93 83.53)"/><path class="cls-2" d="M574.4,374.88,522.91,331l-61.13,25.66,24.3-62.4L442,242.8l66.51,5.3,33.88-57.48,16.8,65.67,65,16-56.13,35.29Z" transform="translate(84.93 83.53)"/><path class="cls-1" d="M563.3,353.54l-38.62-32.9-45.84,19.24,18.22-46.79L464,254.47l49.88,4,25.41-43.12,12.6,49.26,48.78,12L558.56,303Z" transform="translate(84.93 83.53)"/><path class="cls-2" d="M551.76,331.33,526,309.4l-30.57,12.83L507.6,291l-22.05-25.74,33.26,2.65,16.94-28.74,8.4,32.84,32.52,8L548.6,297.66Z" transform="translate(84.93 83.53)"/><path class="cls-1" d="M540.43,309.42l-12.87-11-15.28,6.41,6.08-15.6-11-12.87L524,277.73l8.47-14.37,4.2,16.41,16.26,4-14,8.83Z" transform="translate(84.93 83.53)"/><path class="cls-1" d="M346.12,164.2l68.71,46.31,72.57-40-22.81,79.65L525,306.86l-82.8,2.91-35.22,75-28.36-77.86L296.44,296.6l65.28-51Z" transform="translate(84.93 83.53)"/><path d="M358.32,182.67,414.09,221l58.13-31.88-17.68,64.59,49.2,46.62L437,301.92l-27.71,60.69L385.79,299l-66.34-9.11L371.6,249Z" transform="translate(84.93 83.53)"/><path class="cls-1" d="M371.57,202.75l41.83,28.71L457,207.55,443.74,256l36.9,35-50,1.23-20.79,45.52L392.17,290l-49.75-6.84,39.12-30.7Z" transform="translate(84.93 83.53)"/><path d="M385.36,223.63l27.89,19.14,29.06-15.94-8.84,32.3,24.6,23.31-33.35.82L410.86,313.6l-11.77-31.78-33.17-4.56L392,256.8Z" transform="translate(84.93 83.53)"/><path class="cls-1" d="M398.9,244.25l14,9.57,14.53-8L423,262l12.3,11.66-16.68.41-6.93,15.17-5.88-15.89-16.59-2.28,13-10.23Z" transform="translate(84.93 83.53)"/><path class="cls-1" d="M566.49,206.76,645.4,232l58.51-58.67.36,82.86,73.87,37.52-78.69,25.94L686.6,401.53l-49-66.82-81.82,13.07,48.42-67.24Z" transform="translate(84.93 83.53)"/><path d="M583.37,221.09l64.24,21.16,46.91-46.85,1.07,67,60.28,31-63.59,20.22-9.65,66-40.37-54.46L576,334.93l38.64-53.87Z" transform="translate(84.93 83.53)"/><path class="cls-1" d="M601.7,236.66l48.19,15.88,35.18-35.14.8,50.21,45.21,23.27L683.39,306l-7.24,49.51-30.27-40.84-49.69,7.34,29-40.41Z" transform="translate(84.93 83.53)"/><path d="M620.78,252.86l32.12,10.58L676.35,240l.54,33.48L707,289l-31.8,10.11-4.82,33-20.19-27.23-33.12,4.89,19.32-26.93Z" transform="translate(84.93 83.53)"/><path class="cls-1" d="M639.54,268.87l16.06,5.29,11.73-11.71.27,16.73,15.07,7.76L666.77,292l-2.41,16.51-10.1-13.62-16.56,2.45,9.66-13.47Z" transform="translate(84.93 83.53)"/><path class="cls-1" d="M643.61,177.27l78.91,25.27L781,143.87l.35,82.86,73.88,37.52-78.7,25.94L763.72,372l-49-66.82-81.82,13.07,48.42-67.24Z" transform="translate(84.93 83.53)"/><path d="M660.49,191.6l64.24,21.16,46.91-46.85,1.07,67,60.28,31L769.4,284.1l-9.65,66-40.37-54.46-66.24,9.78,38.64-53.87Z" transform="translate(84.93 83.53)"/><path class="cls-1" d="M678.83,207.17,727,223.05l35.18-35.14.8,50.21,45.21,23.27-47.69,15.16-7.24,49.51L723,285.22l-49.68,7.34,29-40.41Z" transform="translate(84.93 83.53)"/><path d="M697.9,223.37,730,234l23.45-23.42L754,244l30.14,15.5-31.79,10.11-4.83,33L727.35,275.4l-33.13,4.89,19.32-26.93Z" transform="translate(84.93 83.53)"/><path class="cls-1" d="M716.66,239.38l16.06,5.29L744.45,233l.27,16.74,15.07,7.75-15.9,5.05L741.48,279l-10.09-13.62-16.56,2.45,9.65-13.47Z" transform="translate(84.93 83.53)"/><path class="cls-1" d="M464.88,461.14,385.5,437.4l-57.37,59.79-2-82.84-74.59-36.08,78.18-27.46L341,268.73l50.27,65.86,81.55-14.65-47.1,68.16Z" transform="translate(84.93 83.53)"/><path class="cls-2" d="M447.74,447.14l-64.65-19.92L337.1,475l-2.36-66.92-60.87-29.84,63.18-21.44,8.37-66.2,41.41,53.67,66.05-11.07-37.59,54.61Z" transform="translate(84.93 83.53)"/><path class="cls-1" d="M429.1,431.92,380.62,417l-34.5,35.82-1.77-50.19L298.7,380.22l47.38-16.08,6.28-49.64,31.06,40.25L433,346.44l-28.19,41Z" transform="translate(84.93 83.53)"/><path class="cls-2" d="M409.72,416.09l-32.33-9.95L354.4,430l-1.18-33.46-30.44-14.92,31.59-10.72,4.19-33.1,20.7,26.84,33-5.54-18.8,27.31Z" transform="translate(84.93 83.53)"/><path class="cls-1" d="M390.64,400.45l-16.16-5L363,407.41l-.59-16.73-15.22-7.46L363,377.86l2.1-16.55,10.35,13.42L391.93,372l-9.4,13.65Z" transform="translate(84.93 83.53)"/><path class="cls-1" d="M803.13,447.92l-79.39-23.73L666.38,484l-2-82.84-74.59-36.08L668,337.6l11.27-82.09,50.27,65.87,81.55-14.66L764,374.89Z" transform="translate(84.93 83.53)"/><path class="cls-2" d="M786,433.92,721.33,414l-46,47.75L673,394.84,612.11,365l63.18-21.45,8.37-66.19L725.08,331l66-11.07-37.59,54.61Z" transform="translate(84.93 83.53)"/><path class="cls-1" d="M767.34,418.71l-48.48-14.94-34.49,35.81-1.78-50.19L636.94,367l47.39-16.08,6.27-49.65,31.07,40.25,49.53-8.3-28.19,41Z" transform="translate(84.93 83.53)"/><path class="cls-2" d="M748,402.88l-32.32-10-23,23.88-1.18-33.46L661,368.42l31.6-10.73,4.18-33.09,20.71,26.83,33-5.53-18.79,27.3Z" transform="translate(84.93 83.53)"/><path class="cls-1" d="M728.89,387.24l-16.16-5-11.5,11.94-.59-16.73L685.42,370l15.8-5.36,2.09-16.55,10.35,13.41,16.51-2.76-9.39,13.65Z" transform="translate(84.93 83.53)"/><path class="cls-1" d="M485.27,354.05l78.91,25.27,58.51-58.66.35,82.85L696.92,441,618.23,467l-12.85,81.86-49-66.83-81.82,13.07L523,427.83Z" transform="translate(84.93 83.53)"/><path d="M502.14,368.38l64.25,21.17,46.9-46.86,1.07,67,60.28,31-63.58,20.22-9.65,66L561,472.44l-66.25,9.79,38.64-53.88Z" transform="translate(84.93 83.53)"/><path class="cls-1" d="M520.48,384l48.18,15.87,35.18-35.14.81,50.22,45.21,23.26-47.69,15.16-7.24,49.52L564.65,462,515,469.34l29-40.4Z" transform="translate(84.93 83.53)"/><path d="M539.55,400.15l32.13,10.59,23.45-23.43.53,33.48L625.8,436.3,594,446.4l-4.83,33L569,452.18l-33.12,4.9,19.32-26.94Z" transform="translate(84.93 83.53)"/><path class="cls-1" d="M558.32,416.16l16.06,5.29,11.72-11.71.27,16.74,15.07,7.75-15.89,5.06-2.42,16.5L573,442.18l-16.56,2.44,9.66-13.47Z" transform="translate(84.93 83.53)"/><path class="cls-1" d="M-50.78,678.67-.07,613.14l-35.15-75,78,28,60.51-56.62-2.51,82.82,72.54,40.05L93.76,655.55,78.09,736.91,31.44,668.43Z" transform="translate(84.93 83.53)"/><path d="M-31.55,667.71l41.84-53.15-28-60.09,63.3,21.87,49.74-46.05L92.59,597l58.75,31.63-65,19.33-13.44,65.6L35.5,658.79Z" transform="translate(84.93 83.53)"/><path class="cls-1" d="M-10.65,655.8l31.38-39.86-21-45.07,47.47,16.4,37.31-34.54-2.05,50,44.06,23.72L77.79,641l-10.07,49.2-28.08-41Z" transform="translate(84.93 83.53)"/><path d="M11.09,643.41,32,616.83l-14-30,31.65,10.93,24.87-23L73.16,608l29.38,15.81-32.49,9.67-6.72,32.8L44.62,639Z" transform="translate(84.93 83.53)"/><path class="cls-1" d="M32.55,631.24,43,618l-7-15,15.82,5.47,12.43-11.51-.68,16.66,14.69,7.91L62,626.29l-3.36,16.4L49.31,629Z" transform="translate(84.93 83.53)"/><path class="cls-1" d="M173.42,1138.11l-75.93,33.17L92.33,1254l-55-62-80.24,20.65L-1,1141.2l-44.44-69.94,80.93,17.8,52.78-63.87,8.08,82.46Z" transform="translate(84.93 83.53)"/><path class="cls-2" d="M151.29,1138.5l-62.21,26.56-4.25,66.16-45-49.55-65.74,16.55L8.42,1141-28,1085.1l66.29,14.21,43.25-51.12,6.6,66Z" transform="translate(84.93 83.53)"/><path class="cls-1" d="M127.23,1138.93l-46.65,19.92-3.19,49.62L43.6,1171.31l-49.3,12.41,25.78-42.89-27.28-42,49.71,10.66L75,1071.19l5,49.48Z" transform="translate(84.93 83.53)"/><path class="cls-2" d="M102.21,1139.37l-31.1,13.28L69,1185.73,46.46,1161l-32.87,8.27,17.19-28.59-18.19-28,33.14,7.1,21.63-25.55,3.3,33Z" transform="translate(84.93 83.53)"/><path class="cls-1" d="M77.55,1139.75,62,1146.39l-1.06,16.54-11.26-12.39-16.44,4.14,8.59-14.3-9.09-14L49.31,1130l10.81-12.77,1.65,16.49Z" transform="translate(84.93 83.53)"/><path class="cls-1" d="M238.85,1180.58l50.71-65.52-35.14-75,78,28,60.5-56.61-2.51,82.82,72.54,40-79.54,23.21-15.67,81.36-46.65-68.47Z" transform="translate(84.93 83.53)"/><path d="M258.08,1169.62l41.85-53.15-28-60.09,63.29,21.87,49.74-46-2.72,66.66L441,1130.49l-65,19.33-13.43,65.6-37.43-54.72Z" transform="translate(84.93 83.53)"/><path class="cls-1" d="M279,1157.71l31.38-39.86-21-45.07,47.47,16.4,37.31-34.54-2.05,50,44.07,23.72-48.73,14.5-10.08,49.2-28.07-41Z" transform="translate(84.93 83.53)"/><path d="M300.73,1145.32l20.92-26.58-14-30,31.65,10.93,24.87-23-1.36,33.33,29.37,15.81-32.48,9.67-6.72,32.8-18.72-27.36Z" transform="translate(84.93 83.53)"/><path class="cls-1" d="M322.18,1133.15l10.46-13.29-7-15,15.82,5.47,12.44-11.51-.68,16.66,14.68,7.91-16.24,4.83-3.36,16.4-9.36-13.68Z" transform="translate(84.93 83.53)"/><path class="cls-1" d="M847.51,437.18l-49.43,66.5L834.67,578l-78.52-26.46-59.39,57.77.9-82.85-73.3-38.63,79.08-24.75,14.09-81.65,48,67.56Z" transform="translate(84.93 83.53)"/><path class="cls-2" d="M828.49,448.51l-40.8,53.95L816.85,562l-63.7-20.64-48.84,47,1.43-66.71-59.35-30.48L711,470.59l12.16-65.85,38.48,54Z" transform="translate(84.93 83.53)"/><path class="cls-1" d="M807.82,460.83l-30.6,40.46L799.09,546l-47.77-15.49-36.63,35.26,1.07-50-44.51-22.86,48.44-15.44L728.81,428l28.86,40.49Z" transform="translate(84.93 83.53)"/><path class="cls-2" d="M786.33,473.64l-20.41,27,14.59,29.77-31.85-10.32-24.42,23.51.71-33.36L695.28,495l32.29-10.29,6.08-32.92,19.24,27Z" transform="translate(84.93 83.53)"/><path class="cls-1" d="M765.11,486.22l-10.2,13.49,7.29,14.88-15.92-5.16-12.21,11.75.35-16.67-14.83-7.62,16.14-5.15,3-16.46,9.62,13.49Z" transform="translate(84.93 83.53)"/><path class="cls-1" d="M350.06,85.89l50.71-65.53-35.14-75,78,28,60.5-56.61L501.61-.49l72.54,40.05-79.54,23.2-15.67,81.37L432.29,75.65Z" transform="translate(84.93 83.53)"/><path d="M369.3,74.93l41.84-53.15-28-60.09,63.29,21.87L496.16-62.5,493.44,4.17,552.19,35.8l-65,19.33-13.43,65.6L436.35,66Z" transform="translate(84.93 83.53)"/><path class="cls-1" d="M390.2,63l31.38-39.86-21-45.07L448-5.51,485.35-40l-2,50,44.06,23.73L478.64,48.16l-10.08,49.2-28.07-41Z" transform="translate(84.93 83.53)"/><path d="M411.94,50.62l20.92-26.57-14-30L450.5,4.94l24.87-23L474,15.24l29.37,15.82L470.9,40.72l-6.72,32.8L445.46,46.16Z" transform="translate(84.93 83.53)"/><path class="cls-1" d="M433.39,38.46l10.46-13.29-7-15,15.82,5.46L465.11,4.1l-.68,16.67,14.69,7.9-16.25,4.84-3.36,16.4-9.35-13.68Z" transform="translate(84.93 83.53)"/><path class="cls-1" d="M138.69,655.3,89.26,721.8l36.59,74.34L47.33,769.68l-59.39,57.77.9-82.85L-84.46,706l79.08-24.75L8.71,599.57l48,67.56Z" transform="translate(84.93 83.53)"/><path class="cls-2" d="M119.68,666.63l-40.81,54L108,780.12l-63.7-20.64-48.85,47,1.44-66.71L-62.42,709.3,2.16,688.72l12.16-65.85,38.49,54Z" transform="translate(84.93 83.53)"/><path class="cls-1" d="M99,679,68.4,719.41l21.88,44.66L42.5,748.59,5.87,783.84l1.08-50L-37.57,711l48.44-15.44L20,646.12l28.87,40.49Z" transform="translate(84.93 83.53)"/><path class="cls-2" d="M77.51,691.76l-20.4,27L71.69,748.5,39.84,738.18,15.42,761.69l.72-33.35-29.68-15.25,32.3-10.29,6.08-32.92,19.24,27Z" transform="translate(84.93 83.53)"/><path class="cls-1" d="M56.3,704.34,46.09,717.83l7.3,14.88-15.93-5.16L25.25,739.3l.36-16.67L10.77,715l16.15-5.15,3-16.46,9.62,13.49Z" transform="translate(84.93 83.53)"/><path class="cls-1" d="M161.32,1276.84,159,1194l-74.73-35.79,78.07-27.76,11-82.13L223.86,1114l81.5-15-46.85,68.35,39.42,72.88-79.48-23.43Z" transform="translate(84.93 83.53)"/><path d="M169.25,1256.17,168,1188.54l-59.74-28.75,62.83-23.17,9.31-67.15,40.13,53.31L286,1110l-38,56.12,31.16,59.27-63.63-18.63Z" transform="translate(84.93 83.53)"/><path class="cls-1" d="M177.88,1233.71l-1-50.72-44.8-21.56,47.12-17.38,7-50.36,30.09,40,49.12-9.56L236.9,1166.2l23.37,44.45-47.72-14Z" transform="translate(84.93 83.53)"/><path d="M186.85,1210.36l-.65-33.82-29.86-14.38,31.41-11.58,4.66-33.58,20.06,26.66,32.74-6.37-19,28.06L241.78,1195,210,1185.67Z" transform="translate(84.93 83.53)"/><path class="cls-1" d="M195.74,1187.35l-.32-16.91-14.93-7.18,15.7-5.8,2.33-16.78,10,13.32,16.38-3.18-9.51,14,7.79,14.81L207.3,1175Z" transform="translate(84.93 83.53)"/><path class="cls-1" d="M603.84,1092.08l-49.43,66.5L591,1232.92l-78.52-26.46-59.39,57.77.9-82.85-73.3-38.63L459.77,1118l14.09-81.65,48,67.56Z" transform="translate(84.93 83.53)"/><path class="cls-2" d="M584.82,1103.41,544,1157.36l29.16,59.54-63.7-20.64-48.84,47,1.43-66.71-59.35-30.48,64.59-20.58,12.16-65.85,38.48,54Z" transform="translate(84.93 83.53)"/><path class="cls-1" d="M564.15,1115.73l-30.6,40.46,21.87,44.66-47.77-15.48L471,1220.62l1.07-50-44.51-22.86L476,1132.29l9.12-49.39L514,1123.39Z" transform="translate(84.93 83.53)"/><path class="cls-2" d="M542.66,1128.54l-20.41,27,14.59,29.76L505,1175l-24.42,23.51.71-33.35-29.67-15.25,32.29-10.29,6.08-32.92,19.24,27Z" transform="translate(84.93 83.53)"/><path class="cls-1" d="M521.44,1141.12l-10.2,13.49,7.29,14.88-15.92-5.16-12.21,11.75.35-16.67-14.83-7.62,16.14-5.15,3-16.46,9.62,13.49Z" transform="translate(84.93 83.53)"/><path class="cls-1" d="M632.05,968.31l50.71-65.52-35.15-75,78,28,60.5-56.61-2.51,82.82,72.54,40-79.54,23.21-15.67,81.36-46.65-68.47Z" transform="translate(84.93 83.53)"/><path d="M651.28,957.35l41.84-53.15-28-60.09L728.4,866l49.75-46.05-2.73,66.66,58.75,31.63-65,19.33-13.44,65.6-37.43-54.72Z" transform="translate(84.93 83.53)"/><path class="cls-1" d="M672.18,945.44l31.38-39.86-21-45.07L730,876.91l37.31-34.54-2,50,44.06,23.72-48.73,14.5-10.08,49.2-28.07-41Z" transform="translate(84.93 83.53)"/><path d="M693.92,933.05l20.92-26.58-14-30,31.64,10.93,24.87-23L756,897.67l29.38,15.81-32.49,9.67L746.16,956l-18.71-27.36Z" transform="translate(84.93 83.53)"/><path class="cls-1" d="M715.37,920.88l10.46-13.29-7-15L734.66,898l12.43-11.51-.68,16.66,14.69,7.91-16.25,4.83-3.35,16.4-9.36-13.68Z" transform="translate(84.93 83.53)"/></g></svg>