<svg width="424" height="424" viewBox="0 0 424 424" fill="none" xmlns="http://www.w3.org/2000/svg">
<path d="M134.165 120.127L207.981 157.767L275.172 109.281L262.184 191.115L329.061 240.035L247.218 252.971L221.359 331.691L183.765 257.852L100.907 257.584L159.515 199.013L134.165 120.127Z" fill="#D3D3D3"/>
<path d="M148.511 136.984L208.514 168.212L262.348 129.52L252.628 195.774L307.13 236.086L241.119 245.804L220.969 309.411L189.893 249.163L122.937 248.162L169.741 201.209L148.511 136.984Z" fill="black"/>
<path d="M164.105 155.307L209.107 178.728L249.483 149.709L242.192 199.4L283.069 229.633L233.561 236.922L218.448 284.627L195.141 239.441L144.924 238.691L180.027 203.475L164.105 155.307Z" fill="#D3D3D3"/>
<path d="M180.32 174.363L210.322 189.978L237.239 170.631L232.379 203.758L259.63 223.914L226.625 228.774L216.549 260.577L201.011 230.453L167.533 229.953L190.935 206.476L180.32 174.363Z" fill="black"/>
<path d="M196.263 193.183L211.264 200.99L224.723 191.317L222.292 207.88L235.918 217.958L219.415 220.388L214.378 236.29L206.609 221.228L189.87 220.977L201.571 209.239L196.263 193.183Z" fill="#D3D3D3"/>
</svg>
