<svg width="765" height="311" viewBox="0 0 765 311" fill="none" xmlns="http://www.w3.org/2000/svg">
<rect width="673.196" height="67.9662" transform="matrix(0.989363 -0.145468 0.0629137 0.998019 49.0435 216.882)" fill="white"/>
<rect width="673.196" height="67.9662" transform="matrix(0.989363 -0.145468 0.0629137 0.998019 79.0085 178.733)" fill="white"/>
<rect width="673.196" height="67.9662" transform="matrix(0.989363 -0.145468 0.0629137 0.998019 26.3726 133.572)" fill="white"/>
<rect width="673.196" height="67.9662" transform="matrix(0.989363 -0.145468 0.0629137 0.998019 59.8208 100.215)" fill="white"/>
<rect x="-0.526423" y="-0.426113" width="666.899" height="68.9638" transform="matrix(0.989321 -0.145754 0.0635259 0.99798 32.8884 226.825)" fill="black" stroke="black"/>
<rect x="-0.526423" y="-0.426113" width="666.899" height="68.9638" transform="matrix(0.989321 -0.145754 0.0635259 0.99798 62.4841 188.721)" fill="black" stroke="black"/>
<rect x="-0.526423" y="-0.426113" width="666.899" height="68.9638" transform="matrix(0.989321 -0.145754 0.0635259 0.99798 10.3527 143.499)" fill="black" stroke="black"/>
<rect x="-0.526423" y="-0.426113" width="666.899" height="68.9638" transform="matrix(0.989321 -0.145754 0.0635259 0.99798 43.4006 110.191)" fill="black" stroke="black"/>
<path d="M717.601 136.564L719.787 164.354L745.508 175.097L719.755 185.764L717.485 213.546L699.383 192.349L672.258 198.776L686.824 175.009L672.33 151.199L699.435 157.707L717.601 136.564Z" fill="#D5C31C"/>
</svg>
